<svg width="30" height="30" viewBox="0 0 30 30" fill="none" xmlns="http://www.w3.org/2000/svg">
<path d="M2.3178 18.7224L14.7397 6.31724C14.9517 6.10519 15.2028 5.99916 15.493 5.99916C15.7832 5.99916 16.0343 6.10519 16.2464 6.31724L28.6682 18.7224C28.8803 18.9344 28.9863 19.1883 28.9863 19.4841C28.9863 19.7799 28.8803 20.0338 28.6682 20.2458L25.8892 23.0081C25.6772 23.2201 25.4261 23.3262 25.1359 23.3262C24.8457 23.3262 24.5946 23.2201 24.3825 23.0081L15.493 14.1186L6.60351 23.0081C6.39146 23.2201 6.14034 23.3262 5.85017 23.3262C5.55999 23.3262 5.30887 23.2201 5.09682 23.0081L2.3178 20.2458C2.10575 20.0338 1.99972 19.7799 1.99972 19.4841C1.99972 19.1883 2.10575 18.9344 2.3178 18.7224Z" fill="#788AFF"/>
</svg>
