<svg width="1440" height="494" viewBox="0 0 1440 494" fill="none" xmlns="http://www.w3.org/2000/svg">
<rect width="1440" height="494" fill="#101010"/>
<path d="M9 385.707V108.293H42.9709V331.254H101.442V385.707H9Z" fill="#FF0000" fill-opacity="0.15"/>
<path d="M109.365 385.707V108.293H207.366V162.746H143.336V219.638H202.356V274.227H143.336V331.254H207.366V385.707H109.365Z" fill="#FF0000" fill-opacity="0.15"/>
<path d="M214.38 162.746V108.293H333.175V162.746H290.557V385.707H257.066V162.746H214.38Z" fill="#FF0000" fill-opacity="0.15"/>
<path d="M368.034 108.293V139.177C368.034 147.756 367.165 156.425 365.427 165.184C363.734 173.854 361.515 181.981 358.77 189.567C356.024 197.152 353.119 203.564 350.054 208.801L335.779 193.359C337.884 186.496 339.76 178.775 341.407 170.196C343.054 161.527 343.877 151.232 343.877 139.312V108.293H368.034Z" fill="#FF0000" fill-opacity="0.15"/>
<path d="M453.215 191.463C452.758 181.529 450.722 173.808 447.108 168.3C443.539 162.701 438.438 159.902 431.804 159.902C427.411 159.902 423.751 161.03 420.823 163.288C417.895 165.546 415.699 168.661 414.235 172.635C412.771 176.518 412.016 180.988 411.97 186.045C411.879 190.199 412.29 193.856 413.205 197.017C414.166 200.177 415.539 202.977 417.323 205.415C419.153 207.763 421.349 209.84 423.911 211.646C426.473 213.452 429.356 215.032 432.558 216.387L444.637 221.805C451.591 224.785 457.722 228.759 463.029 233.725C468.382 238.692 472.866 244.607 476.48 251.47C480.141 258.333 482.909 266.235 484.784 275.175C486.66 284.115 487.621 294.139 487.667 305.246C487.621 322.765 485.379 337.801 480.941 350.353C476.503 362.905 470.121 372.523 461.794 379.205C453.513 385.888 443.516 389.229 431.804 389.229C420.045 389.229 409.797 385.752 401.058 378.799C392.32 371.846 385.525 361.28 380.676 347.102C375.826 332.924 373.332 314.999 373.195 293.326H405.725C405.999 302.266 407.212 309.716 409.362 315.676C411.513 321.636 414.464 326.152 418.215 329.222C422.013 332.292 426.405 333.827 431.392 333.827C435.967 333.827 439.856 332.608 443.059 330.17C446.307 327.732 448.8 324.346 450.539 320.011C452.278 315.676 453.17 310.71 453.215 305.111C453.17 299.873 452.346 295.403 450.745 291.701C449.144 287.908 446.673 284.657 443.333 281.948C440.039 279.148 435.83 276.575 430.705 274.227L416.019 267.454C403.849 261.945 394.264 253.05 387.264 240.769C380.264 228.397 376.787 211.691 376.832 190.65C376.787 173.492 379.12 158.457 383.833 145.543C388.545 132.63 395.065 122.561 403.392 115.337C411.718 108.112 421.212 104.5 431.872 104.5C442.761 104.5 452.209 108.157 460.216 115.472C468.268 122.696 474.513 132.856 478.951 145.95C483.389 159.044 485.654 174.215 485.745 191.463H453.215Z" fill="#FF0000" fill-opacity="0.15"/>
<path d="M654.598 208.801H620.284C619.826 201.848 618.888 195.572 617.47 189.973C616.051 184.374 614.176 179.588 611.842 175.615C609.509 171.641 606.741 168.616 603.538 166.539C600.381 164.372 596.881 163.288 593.038 163.288C586.221 163.288 580.342 166.584 575.401 173.176C570.505 179.769 566.731 189.296 564.077 201.758C561.469 214.22 560.165 229.3 560.165 247C560.165 265.422 561.492 280.864 564.146 293.326C566.845 305.698 570.62 315.044 575.469 321.365C580.365 327.596 586.153 330.712 592.832 330.712C596.584 330.712 599.993 329.764 603.058 327.867C606.169 325.971 608.891 323.217 611.225 319.605C613.604 315.902 615.548 311.432 617.058 306.194C618.614 300.866 619.689 294.861 620.284 288.179L654.598 288.585C654.003 300.866 652.196 312.967 649.176 324.887C646.202 336.807 642.107 347.689 636.892 357.532C631.676 367.285 625.316 375.051 617.813 380.831C610.355 386.61 601.8 389.5 592.146 389.5C579.427 389.5 568.035 383.991 557.969 372.974C547.95 361.867 540.035 345.702 534.224 324.481C528.414 303.26 525.508 277.433 525.508 247C525.508 216.477 528.459 190.605 534.361 169.384C540.263 148.162 548.247 132.043 558.312 121.026C568.378 110.009 579.656 104.5 592.146 104.5C600.656 104.5 608.525 106.848 615.754 111.544C622.983 116.149 629.342 122.922 634.833 131.862C640.323 140.712 644.784 151.594 648.215 164.507C651.647 177.421 653.774 192.185 654.598 208.801Z" fill="#FF0000" fill-opacity="0.15"/>
<path d="M797.032 247C797.032 277.523 794.058 303.395 788.11 324.616C782.162 345.838 774.11 361.957 763.953 372.974C753.842 383.991 742.495 389.5 729.913 389.5C717.286 389.5 705.916 383.946 695.805 372.839C685.694 361.731 677.665 345.612 671.717 324.481C665.815 303.26 662.864 277.433 662.864 247C662.864 216.477 665.815 190.605 671.717 169.384C677.665 148.162 685.694 132.043 695.805 121.026C705.916 110.009 717.286 104.5 729.913 104.5C742.495 104.5 753.842 110.009 763.953 121.026C774.11 132.043 782.162 148.162 788.11 169.384C794.058 190.605 797.032 216.477 797.032 247ZM762.306 247C762.306 228.939 761.002 213.678 758.394 201.216C755.832 188.754 752.126 179.317 747.276 172.905C742.472 166.494 736.685 163.288 729.913 163.288C723.188 163.288 717.4 166.494 712.55 172.905C707.701 179.317 703.972 188.754 701.364 201.216C698.802 213.678 697.521 228.939 697.521 247C697.521 265.061 698.802 280.322 701.364 292.784C703.972 305.246 707.701 314.683 712.55 321.095C717.4 327.506 723.188 330.712 729.913 330.712C736.685 330.712 742.472 327.506 747.276 321.095C752.126 314.683 755.832 305.246 758.394 292.784C761.002 280.322 762.306 265.061 762.306 247Z" fill="#FF0000" fill-opacity="0.15"/>
<path d="M926.821 108.293V385.707H897.997L842.065 225.598H841.173V385.707H807.202V108.293H836.438L891.752 268.131H892.919V108.293H926.821Z" fill="#FF0000" fill-opacity="0.15"/>
<path d="M1058.14 108.293V385.707H1029.31L973.382 225.598H972.489V385.707H938.519V108.293H967.754L1023.07 268.131H1024.23V108.293H1058.14Z" fill="#FF0000" fill-opacity="0.15"/>
<path d="M1069.83 385.707V108.293H1167.84V162.746H1103.81V219.638H1162.83V274.227H1103.81V331.254H1167.84V385.707H1069.83Z" fill="#FF0000" fill-opacity="0.15"/>
<path d="M1307.03 208.801H1272.71C1272.26 201.848 1271.32 195.572 1269.9 189.973C1268.48 184.374 1266.61 179.588 1264.27 175.615C1261.94 171.641 1259.17 168.616 1255.97 166.539C1252.81 164.372 1249.31 163.288 1245.47 163.288C1238.65 163.288 1232.77 166.584 1227.83 173.176C1222.93 179.769 1219.16 189.296 1216.51 201.758C1213.9 214.22 1212.59 229.3 1212.59 247C1212.59 265.422 1213.92 280.864 1216.58 293.326C1219.27 305.698 1223.05 315.044 1227.9 321.365C1232.79 327.596 1238.58 330.712 1245.26 330.712C1249.01 330.712 1252.42 329.764 1255.49 327.867C1258.6 325.971 1261.32 323.217 1263.65 319.605C1266.03 315.902 1267.98 311.432 1269.49 306.194C1271.04 300.866 1272.12 294.861 1272.71 288.179L1307.03 288.585C1306.43 300.866 1304.63 312.967 1301.61 324.887C1298.63 336.807 1294.54 347.689 1289.32 357.532C1284.11 367.285 1277.75 375.051 1270.24 380.831C1262.78 386.61 1254.23 389.5 1244.58 389.5C1231.86 389.5 1220.46 383.991 1210.4 372.974C1200.38 361.867 1192.46 345.702 1186.65 324.481C1180.84 303.26 1177.94 277.433 1177.94 247C1177.94 216.477 1180.89 190.605 1186.79 169.384C1192.69 148.162 1200.68 132.043 1210.74 121.026C1220.81 110.009 1232.09 104.5 1244.58 104.5C1253.09 104.5 1260.95 106.848 1268.18 111.544C1275.41 116.149 1281.77 122.922 1287.26 131.862C1292.75 140.712 1297.21 151.594 1300.64 164.507C1304.08 177.421 1306.2 192.185 1307.03 208.801Z" fill="#FF0000" fill-opacity="0.15"/>
<path d="M1312.2 162.746V108.293H1431V162.746H1388.38V385.707H1354.89V162.746H1312.2Z" fill="#FF0000" fill-opacity="0.15"/>
</svg>
