<svg width="918" height="110" viewBox="0 0 918 110" fill="none" xmlns="http://www.w3.org/2000/svg">
<g filter="url(#filter0_d_496_1817)">
<path d="M54.5152 4.07178H73.8586V60.1012C73.8586 66.5764 72.4359 72.2175 69.5905 77.0245C66.7451 81.8032 62.7773 85.5073 57.6869 88.137C52.5965 90.7384 46.6838 92.0392 39.9489 92.0392C33.1356 92.0392 27.1838 90.7384 22.0934 88.137C17.003 85.5073 13.0482 81.8032 10.2289 77.0245C7.40964 72.2175 6 66.5764 6 60.1012V4.07178H25.3826V58.2773C25.3826 61.2746 25.983 63.9467 27.1838 66.2936C28.4107 68.6406 30.1205 70.4785 32.3133 71.8075C34.5061 73.1365 37.0513 73.801 39.9489 73.801C42.8465 73.801 45.3786 73.1365 47.5453 71.8075C49.7381 70.4785 51.4479 68.6406 52.6748 66.2936C53.9017 63.9467 54.5152 61.2746 54.5152 58.2773V4.07178Z" fill="#788AFF"/>
<path d="M105.39 4.07178V90.9364H86.007V4.07178H105.39Z" fill="#788AFF"/>
<path d="M154.678 0L128.835 104H112.506L138.35 0H154.678Z" fill="#788AFF"/>
<path d="M210.33 4.07178H229.673V60.1012C229.673 66.5764 228.25 72.2175 225.405 77.0245C222.56 81.8032 218.592 85.5073 213.501 88.137C208.411 90.7384 202.498 92.0392 195.763 92.0392C188.95 92.0392 182.998 90.7384 177.908 88.137C172.817 85.5073 168.863 81.8032 166.043 77.0245C163.224 72.2175 161.814 66.5764 161.814 60.1012V4.07178H181.197V58.2773C181.197 61.2746 181.797 63.9467 182.998 66.2936C184.225 68.6406 185.935 70.4785 188.128 71.8075C190.321 73.1365 192.866 73.801 195.763 73.801C198.661 73.801 201.193 73.1365 203.36 71.8075C205.552 70.4785 207.262 68.6406 208.489 66.2936C209.716 63.9467 210.33 61.2746 210.33 58.2773V4.07178Z" fill="#788AFF"/>
<path d="M261.439 4.07178L276.084 31.5139H276.71L291.511 4.07178H313.204L289.005 47.5041L313.987 90.9364H291.746L276.71 63.1974H276.084L261.047 90.9364H238.963L263.827 47.5041L239.589 4.07178H261.439Z" fill="#788AFF"/>
<path d="M376.56 90.9364H346.918V4.07178H376.521C384.691 4.07178 391.726 5.81077 397.626 9.28875C403.552 12.7384 408.12 17.7151 411.331 24.2186C414.542 30.6939 416.147 38.4416 416.147 47.4617C416.147 56.5101 414.542 64.286 411.331 70.7896C408.146 77.2931 403.591 82.2839 397.665 85.7618C391.739 89.2115 384.704 90.9364 376.56 90.9364ZM366.301 73.0375H375.816C380.306 73.0375 384.104 72.2175 387.21 70.5775C390.343 68.9092 392.705 66.2088 394.298 62.4764C395.916 58.7156 396.725 53.7107 396.725 47.4617C396.725 41.2126 395.916 36.236 394.298 32.5318C392.679 28.7994 390.291 26.1131 387.132 24.4731C383.999 22.8048 380.136 21.9706 375.542 21.9706H366.301V73.0375Z" fill="#788AFF"/>
<path d="M427.463 90.9364V4.07178H483.379V21.1224H446.846V38.9364H480.521V56.0294H446.846V73.8858H483.379V90.9364H427.463Z" fill="#788AFF"/>
<path d="M538.864 30.1142C538.603 27.0038 537.442 24.5862 535.379 22.8613C533.343 21.1082 530.433 20.2317 526.647 20.2317C524.141 20.2317 522.053 20.5851 520.382 21.292C518.712 21.9989 517.459 22.9744 516.623 24.2186C515.788 25.4345 515.357 26.8342 515.331 28.4176C515.279 29.7183 515.514 30.8635 516.036 31.8532C516.584 32.8429 517.367 33.7194 518.385 34.4829C519.43 35.2181 520.682 35.8684 522.144 36.4339C523.606 36.9995 525.251 37.4943 527.078 37.9184L533.97 39.615C537.938 40.5481 541.436 41.7923 544.464 43.3475C547.518 44.9027 550.076 46.7548 552.138 48.9038C554.227 51.0528 555.806 53.5269 556.876 56.3263C557.947 59.1256 558.495 62.2643 558.521 65.7423C558.495 71.2279 557.216 75.9358 554.684 79.8662C552.152 83.7966 548.51 86.8081 543.759 88.9005C539.034 90.9929 533.33 92.0392 526.647 92.0392C519.939 92.0392 514.091 90.9505 509.105 88.7733C504.119 86.596 500.243 83.2877 497.476 78.8483C494.709 74.4089 493.286 68.7961 493.208 62.0098H511.768C511.924 64.8091 512.616 67.1419 513.843 69.0082C515.07 70.8744 516.754 72.2882 518.894 73.2496C521.061 74.211 523.567 74.6917 526.412 74.6917C529.023 74.6917 531.242 74.31 533.069 73.5465C534.923 72.783 536.345 71.7227 537.337 70.3654C538.329 69.0082 538.838 67.453 538.864 65.6998C538.838 64.0598 538.368 62.6602 537.455 61.5008C536.541 60.3132 535.131 59.2953 533.226 58.447C531.346 57.5704 528.945 56.7646 526.021 56.0294L517.641 53.9087C510.698 52.1838 505.229 49.3986 501.235 45.553C497.241 41.6792 495.257 36.4481 495.283 29.8597C495.257 24.4872 496.588 19.7792 499.277 15.7357C501.966 11.6922 505.686 8.53943 510.437 6.27733C515.188 4.01523 520.604 2.88418 526.687 2.88418C532.899 2.88418 538.29 4.02937 542.858 6.31974C547.453 8.58184 551.016 11.7629 553.548 15.863C556.08 19.963 557.372 24.7134 557.425 30.1142H538.864Z" fill="#788AFF"/>
<path d="M587.693 4.07178V90.9364H568.31V4.07178H587.693Z" fill="#788AFF"/>
<path d="M652.487 32.447C652.044 30.6656 651.391 29.0963 650.529 27.739C649.668 26.3535 648.611 25.18 647.358 24.2186C646.105 23.2572 644.669 22.5362 643.051 22.0555C641.432 21.5465 639.657 21.292 637.725 21.292C633.836 21.292 630.468 22.31 627.623 24.3458C624.804 26.3817 622.624 29.3507 621.084 33.2529C619.544 37.1267 618.773 41.8347 618.773 47.3768C618.773 52.9473 619.517 57.6977 621.005 61.6281C622.493 65.5585 624.647 68.5557 627.466 70.6199C630.285 72.6841 633.705 73.7162 637.725 73.7162C641.275 73.7162 644.277 73.0941 646.731 71.8499C649.211 70.5775 651.091 68.782 652.37 66.4633C653.649 64.1447 654.289 61.416 654.289 58.2773L657.891 58.7439H638.391V43.4323H672.966V54.9266C672.966 62.7026 671.439 69.3616 668.385 74.9038C665.357 80.4459 661.18 84.7015 655.855 87.6705C650.556 90.6395 644.46 92.124 637.569 92.124C629.92 92.124 623.198 90.3285 617.403 86.7374C611.608 83.1463 607.092 78.0283 603.855 71.3834C600.618 64.7102 598.999 56.7928 598.999 47.6313C598.999 40.5057 599.978 34.186 601.936 28.6721C603.894 23.13 606.622 18.4361 610.12 14.5905C613.644 10.745 617.716 7.83252 622.337 5.85318C626.983 3.87385 631.982 2.88418 637.334 2.88418C641.98 2.88418 646.301 3.60522 650.295 5.04731C654.315 6.4894 657.865 8.52529 660.945 11.155C664.052 13.7847 666.571 16.9092 668.502 20.5286C670.434 24.1479 671.635 28.1207 672.105 32.447H652.487Z" fill="#788AFF"/>
<path d="M752.641 4.07178V90.9364H736.195L704.282 40.8026H703.773V90.9364H684.39V4.07178H701.071L732.631 54.1207H733.297V4.07178H752.641Z" fill="#788AFF"/>
<path d="M764.828 90.9364V4.07178H820.744V21.1224H784.211V38.9364H817.885V56.0294H784.211V73.8858H820.744V90.9364H764.828Z" fill="#788AFF"/>
<path d="M832.882 90.9364V4.07178H866.009C872.013 4.07178 877.195 5.24525 881.554 7.59217C885.94 9.91083 889.32 13.2474 891.696 17.602C894.071 21.9282 895.259 27.0604 895.259 32.9984C895.259 39.0212 894.045 44.1392 891.617 48.3524C889.19 52.5373 885.744 55.7325 881.28 57.938C876.816 60.1153 871.53 61.2039 865.422 61.2039H844.473V44.6623H861.819C864.743 44.6623 867.184 44.2523 869.142 43.4323C871.125 42.584 872.626 41.3116 873.645 39.615C874.663 37.8902 875.172 35.6846 875.172 32.9984C875.172 30.3121 874.663 28.0924 873.645 26.3393C872.626 24.5579 871.125 23.2289 869.142 22.3524C867.158 21.4475 864.717 20.9951 861.819 20.9951H852.265V90.9364H832.882ZM878.03 51.2365L898 90.9364H876.855L857.277 51.2365H878.03Z" fill="#788AFF"/>
</g>
<defs>
<filter id="filter0_d_496_1817" x="0" y="0" width="898" height="110" filterUnits="userSpaceOnUse" color-interpolation-filters="sRGB">
<feFlood flood-opacity="0" result="BackgroundImageFix"/>
<feColorMatrix in="SourceAlpha" type="matrix" values="0 0 0 0 0 0 0 0 0 0 0 0 0 0 0 0 0 0 127 0" result="hardAlpha"/>
<feOffset dx="-3" dy="3"/>
<feGaussianBlur stdDeviation="1.5"/>
<feComposite in2="hardAlpha" operator="out"/>
<feColorMatrix type="matrix" values="0 0 0 0 1 0 0 0 0 1 0 0 0 0 1 0 0 0 0.25 0"/>
<feBlend mode="normal" in2="BackgroundImageFix" result="effect1_dropShadow_496_1817"/>
<feBlend mode="normal" in="SourceGraphic" in2="effect1_dropShadow_496_1817" result="shape"/>
</filter>
</defs>
</svg>
