<svg width="202" height="21" viewBox="0 0 202 21" fill="none" xmlns="http://www.w3.org/2000/svg">
<g filter="url(#filter0_d_496_1816)">
<path d="M1.125 19.2345V0.259425H9.16506V3.98402H3.9718V7.87539H8.65321V11.6093H3.9718V19.2345H1.125Z" fill="#788AFF"/>
<path d="M10.5985 19.2345V0.259425H15.464C16.3458 0.259425 17.1069 0.515761 17.7472 1.02843C18.3913 1.53493 18.8878 2.26379 19.2367 3.21501C19.5856 4.16006 19.7601 5.28114 19.7601 6.57827C19.7601 7.89392 19.5818 9.01192 19.2252 9.93226C18.8686 10.8464 18.3625 11.5444 17.7069 12.0262C17.0513 12.5018 16.2749 12.7396 15.3777 12.7396H12.3009V9.12619H14.8486C15.278 9.12619 15.6365 9.03662 15.9241 8.8575C16.2155 8.67219 16.4359 8.39424 16.5854 8.02363C16.735 7.64685 16.8097 7.16506 16.8097 6.57827C16.8097 5.99147 16.735 5.5066 16.5854 5.12364C16.4359 4.7345 16.2155 4.44419 15.9241 4.25271C15.6327 4.05506 15.2742 3.95623 14.8486 3.95623H13.4453V19.2345H10.5985ZM17.2296 10.5623L20.1626 19.2345H17.057L14.1815 10.5623H17.2296Z" fill="#788AFF"/>
<path d="M32.4384 9.74695C32.4384 11.8347 32.1892 13.6044 31.6908 15.0559C31.1923 16.5074 30.5175 17.61 29.6664 18.3636C28.819 19.1171 27.8682 19.4939 26.8138 19.4939C25.7556 19.4939 24.8028 19.114 23.9555 18.3543C23.1082 17.5945 22.4353 16.492 21.9369 15.0466C21.4423 13.5951 21.195 11.8285 21.195 9.74695C21.195 7.6592 21.4423 5.88956 21.9369 4.43801C22.4353 2.98647 23.1082 1.88392 23.9555 1.13035C24.8028 0.376783 25.7556 0 26.8138 0C27.8682 0 28.819 0.376783 29.6664 1.13035C30.5175 1.88392 31.1923 2.98647 31.6908 4.43801C32.1892 5.88956 32.4384 7.6592 32.4384 9.74695ZM29.5283 9.74695C29.5283 8.5116 29.4191 7.46772 29.2005 6.61533C28.9858 5.76293 28.6753 5.11746 28.2688 4.67891C27.8663 4.24036 27.3813 4.02108 26.8138 4.02108C26.2502 4.02108 25.7652 4.24036 25.3588 4.67891C24.9524 5.11746 24.6399 5.76293 24.4213 6.61533C24.2066 7.46772 24.0993 8.5116 24.0993 9.74695C24.0993 10.9823 24.2066 12.0262 24.4213 12.8786C24.6399 13.731 24.9524 14.3764 25.3588 14.815C25.7652 15.2536 26.2502 15.4728 26.8138 15.4728C27.3813 15.4728 27.8663 15.2536 28.2688 14.815C28.6753 14.3764 28.9858 13.731 29.2005 12.8786C29.4191 12.0262 29.5283 10.9823 29.5283 9.74695Z" fill="#788AFF"/>
<path d="M44.1247 0.259425V19.2345H41.7092L37.022 8.28306H36.9473V19.2345H34.1005V0.259425H36.5505L41.1859 11.1923H41.2836V0.259425H44.1247Z" fill="#788AFF"/>
<path d="M45.5294 3.98402V0.259425H55.4846V3.98402H51.9131V19.2345H49.1066V3.98402H45.5294Z" fill="#788AFF"/>
<path d="M62.291 8.0051V11.4888H56.839V8.0051H62.291Z" fill="#788AFF"/>
<path d="M64.2766 19.2345V0.259425H72.4892V3.98402H67.1234V7.87539H72.0694V11.6093H67.1234V15.5099H72.4892V19.2345H64.2766Z" fill="#788AFF"/>
<path d="M84.2962 0.259425V19.2345H81.8808L77.1936 8.28306H77.1188V19.2345H74.272V0.259425H76.722L81.3574 11.1923H81.4552V0.259425H84.2962Z" fill="#788AFF"/>
<path d="M90.4399 19.2345H86.0863V0.259425H90.4341C91.6342 0.259425 92.6675 0.639297 93.534 1.39904C94.4043 2.15261 95.0753 3.23972 95.5469 4.66038C96.0185 6.07486 96.2543 7.7673 96.2543 9.73769C96.2543 11.7143 96.0185 13.4129 95.5469 14.8335C95.0791 16.2542 94.4101 17.3444 93.5397 18.1041C92.6694 18.8577 91.6361 19.2345 90.4399 19.2345ZM88.9331 15.3246H90.3306C90.9901 15.3246 91.5479 15.1455 92.0042 14.7872C92.4643 14.4228 92.8113 13.8329 93.0451 13.0176C93.2828 12.196 93.4017 11.1028 93.4017 9.73769C93.4017 8.37262 93.2828 7.28551 93.0451 6.47635C92.8074 5.66102 92.4566 5.07422 91.9927 4.71597C91.5326 4.35154 90.9651 4.16932 90.2903 4.16932H88.9331V15.3246Z" fill="#788AFF"/>
<path d="M105.749 19.2345H101.396V0.259425H105.744C106.944 0.259425 107.977 0.639297 108.843 1.39904C109.714 2.15261 110.385 3.23972 110.856 4.66038C111.328 6.07486 111.564 7.7673 111.564 9.73769C111.564 11.7143 111.328 13.4129 110.856 14.8335C110.389 16.2542 109.72 17.3444 108.849 18.1041C107.979 18.8577 106.946 19.2345 105.749 19.2345ZM104.243 15.3246H105.64C106.3 15.3246 106.857 15.1455 107.314 14.7872C107.774 14.4228 108.121 13.8329 108.355 13.0176C108.592 12.196 108.711 11.1028 108.711 9.73769C108.711 8.37262 108.592 7.28551 108.355 6.47635C108.117 5.66102 107.766 5.07422 107.302 4.71597C106.842 4.35154 106.275 4.16932 105.6 4.16932H104.243V15.3246Z" fill="#788AFF"/>
<path d="M113.226 19.2345V0.259425H121.438V3.98402H116.073V7.87539H121.019V11.6093H116.073V15.5099H121.438V19.2345H113.226Z" fill="#788AFF"/>
<path d="M125.896 0.259425L128.53 14.1572H128.627L131.261 0.259425H134.447L130.473 19.2345H126.683L122.709 0.259425H125.896Z" fill="#788AFF"/>
<path d="M135.716 19.2345V0.259425H143.928V3.98402H138.562V7.87539H143.508V11.6093H138.562V15.5099H143.928V19.2345H135.716Z" fill="#788AFF"/>
<path d="M145.711 19.2345V0.259425H148.558V15.5099H153.458V19.2345H145.711Z" fill="#788AFF"/>
<path d="M165.59 9.74695C165.59 11.8347 165.341 13.6044 164.842 15.0559C164.344 16.5074 163.669 17.61 162.818 18.3636C161.97 19.1171 161.02 19.4939 159.965 19.4939C158.907 19.4939 157.954 19.114 157.107 18.3543C156.26 17.5945 155.587 16.492 155.088 15.0466C154.594 13.5951 154.346 11.8285 154.346 9.74695C154.346 7.6592 154.594 5.88956 155.088 4.43801C155.587 2.98647 156.26 1.88392 157.107 1.13035C157.954 0.376783 158.907 0 159.965 0C161.02 0 161.97 0.376783 162.818 1.13035C163.669 1.88392 164.344 2.98647 164.842 4.43801C165.341 5.88956 165.59 7.6592 165.59 9.74695ZM162.68 9.74695C162.68 8.5116 162.57 7.46772 162.352 6.61533C162.137 5.76293 161.827 5.11746 161.42 4.67891C161.018 4.24036 160.533 4.02108 159.965 4.02108C159.402 4.02108 158.917 4.24036 158.51 4.67891C158.104 5.11746 157.791 5.76293 157.573 6.61533C157.358 7.46772 157.251 8.5116 157.251 9.74695C157.251 10.9823 157.358 12.0262 157.573 12.8786C157.791 13.731 158.104 14.3764 158.51 14.815C158.917 15.2536 159.402 15.4728 159.965 15.4728C160.533 15.4728 161.018 15.2536 161.42 14.815C161.827 14.3764 162.137 13.731 162.352 12.8786C162.57 12.0262 162.68 10.9823 162.68 9.74695Z" fill="#788AFF"/>
<path d="M167.252 19.2345V0.259425H172.117C172.999 0.259425 173.76 0.53738 174.4 1.09329C175.045 1.64302 175.541 2.41203 175.89 3.40032C176.239 4.38242 176.413 5.52513 176.413 6.82843C176.413 8.1379 176.235 9.2837 175.878 10.2658C175.526 11.2417 175.022 11.9984 174.366 12.5358C173.71 13.0731 172.932 13.3418 172.031 13.3418H169.029V9.72842H171.502C171.931 9.72842 172.29 9.60798 172.577 9.36708C172.869 9.12619 173.089 8.78955 173.239 8.35718C173.388 7.91863 173.463 7.40904 173.463 6.82843C173.463 6.24163 173.388 5.73514 173.239 5.30894C173.089 4.87657 172.869 4.54302 172.577 4.3083C172.286 4.07359 171.927 3.95623 171.502 3.95623H170.099V19.2345H167.252Z" fill="#788AFF"/>
<path d="M177.817 19.2345V0.259425H186.029V3.98402H180.663V7.87539H185.609V11.6093H180.663V15.5099H186.029V19.2345H177.817Z" fill="#788AFF"/>
<path d="M187.812 19.2345V0.259425H192.678C193.559 0.259425 194.32 0.515761 194.961 1.02843C195.605 1.53493 196.101 2.26379 196.45 3.21501C196.799 4.16006 196.974 5.28114 196.974 6.57827C196.974 7.89392 196.795 9.01192 196.439 9.93226C196.082 10.8464 195.576 11.5444 194.92 12.0262C194.265 12.5018 193.488 12.7396 192.591 12.7396H189.514V9.12619H192.062C192.492 9.12619 192.85 9.03662 193.138 8.8575C193.429 8.67219 193.649 8.39424 193.799 8.02363C193.949 7.64685 194.023 7.16506 194.023 6.57827C194.023 5.99147 193.949 5.5066 193.799 5.12364C193.649 4.7345 193.429 4.44419 193.138 4.25271C192.846 4.05506 192.488 3.95623 192.062 3.95623H190.659V19.2345H187.812ZM194.443 10.5623L197.376 19.2345H194.271L191.395 10.5623H194.443Z" fill="#788AFF"/>
</g>
<defs>
<filter id="filter0_d_496_1816" x="0.000351548" y="0" width="197.375" height="20.6188" filterUnits="userSpaceOnUse" color-interpolation-filters="sRGB">
<feFlood flood-opacity="0" result="BackgroundImageFix"/>
<feColorMatrix in="SourceAlpha" type="matrix" values="0 0 0 0 0 0 0 0 0 0 0 0 0 0 0 0 0 0 127 0" result="hardAlpha"/>
<feOffset dx="-0.562324" dy="0.562324"/>
<feGaussianBlur stdDeviation="0.281162"/>
<feComposite in2="hardAlpha" operator="out"/>
<feColorMatrix type="matrix" values="0 0 0 0 1 0 0 0 0 1 0 0 0 0 1 0 0 0 0.25 0"/>
<feBlend mode="normal" in2="BackgroundImageFix" result="effect1_dropShadow_496_1816"/>
<feBlend mode="normal" in="SourceGraphic" in2="effect1_dropShadow_496_1816" result="shape"/>
</filter>
</defs>
</svg>
