<svg width="1200" height="143" viewBox="0 0 1200 143" fill="none" xmlns="http://www.w3.org/2000/svg">
<rect width="1200" height="143" fill="black"/>
<path d="M117.579 92.6331C115.279 92.6331 113.158 92.0422 111.217 90.8605C109.297 89.6788 107.756 88.1067 106.596 86.1442C105.456 84.1606 104.886 81.9871 104.886 79.6237V76.6483C104.886 76.4162 104.992 76.3001 105.203 76.3001H112.483C112.652 76.3001 112.736 76.4162 112.736 76.6483V79.6237C112.736 81.0375 113.211 82.2614 114.161 83.2954C115.11 84.3083 116.25 84.8148 117.579 84.8148C118.93 84.8148 120.08 84.2978 121.029 83.2638C121.979 82.2087 122.454 80.9953 122.454 79.6237C122.454 78.041 121.42 76.6588 119.352 75.4771C119.014 75.2661 118.571 75.0129 118.022 74.7174C117.495 74.4009 116.862 74.0422 116.123 73.6412C115.385 73.2403 114.667 72.8499 113.971 72.4701C113.274 72.0691 112.599 71.6893 111.945 71.3306C109.581 69.9378 107.819 68.1969 106.659 66.1078C105.519 63.9976 104.95 61.6342 104.95 59.0175C104.95 56.6119 105.54 54.4384 106.722 52.497C107.904 50.5767 109.444 49.0574 111.344 47.939C113.264 46.7995 115.342 46.2297 117.579 46.2297C119.879 46.2297 121.989 46.7995 123.91 47.939C125.83 49.0996 127.36 50.64 128.499 52.5603C129.66 54.4806 130.24 56.633 130.24 59.0175V64.3352C130.24 64.5041 130.156 64.5885 129.987 64.5885H122.707C122.538 64.5885 122.454 64.5041 122.454 64.3352L122.39 59.0175C122.39 57.4982 121.916 56.2637 120.966 55.3141C120.016 54.3645 118.887 53.8897 117.579 53.8897C116.25 53.8897 115.11 54.3962 114.161 55.4091C113.211 56.422 112.736 57.6248 112.736 59.0175C112.736 60.4314 113.032 61.6131 113.623 62.5627C114.234 63.5123 115.342 64.4197 116.946 65.2848C117.115 65.3692 117.505 65.5803 118.117 65.9179C118.729 66.2555 119.404 66.6354 120.143 67.0574C120.903 67.4583 121.589 67.8276 122.2 68.1653C122.812 68.4818 123.182 68.6717 123.308 68.735C125.461 69.9378 127.159 71.415 128.404 73.1664C129.671 74.9179 130.304 77.0703 130.304 79.6237C130.304 82.0926 129.734 84.3083 128.594 86.2708C127.434 88.2333 125.893 89.7843 123.973 90.9238C122.053 92.0633 119.921 92.6331 117.579 92.6331ZM142.395 92H135.052C134.883 92 134.798 91.8945 134.798 91.6835L134.925 47.211C134.925 46.9999 135.009 46.8944 135.178 46.8944H142.458C142.627 46.8944 142.712 46.9999 142.712 47.211V62.5627L152.872 47.1476C153.041 46.9788 153.199 46.8944 153.347 46.8944H160.786C160.975 46.8944 161.018 46.9788 160.912 47.1476L149.707 65.0316L162.273 91.7468C162.379 91.9156 162.273 92 161.957 92H154.043C153.832 92 153.706 91.9156 153.664 91.7468L144.896 72.6916L142.648 76.2368V91.6835C142.648 91.8945 142.564 92 142.395 92ZM172.845 92H165.502C165.291 92 165.185 91.8945 165.185 91.6835L165.249 47.1476C165.249 46.9788 165.333 46.8944 165.502 46.8944H172.782C172.951 46.8944 173.035 46.9788 173.035 47.1476L173.099 91.6835C173.099 91.8945 173.014 92 172.845 92ZM200.004 92H179.049C178.881 92 178.796 91.8945 178.796 91.6835L178.859 47.211C178.859 46.9999 178.965 46.8944 179.176 46.8944H186.393C186.604 46.8944 186.709 46.9999 186.709 47.211L186.646 84.0234H200.004C200.215 84.0234 200.32 84.1289 200.32 84.34V91.6835C200.32 91.8945 200.215 92 200.004 92ZM225.769 92H204.815C204.646 92 204.562 91.8945 204.562 91.6835L204.625 47.211C204.625 46.9999 204.731 46.8944 204.942 46.8944H212.158C212.369 46.8944 212.475 46.9999 212.475 47.211L212.412 84.0234H225.769C225.98 84.0234 226.086 84.1289 226.086 84.34V91.6835C226.086 91.8945 225.98 92 225.769 92ZM241.343 92.6331C239.042 92.6331 236.922 92.0422 234.98 90.8605C233.06 89.6788 231.52 88.1067 230.359 86.1442C229.219 84.1606 228.65 81.9871 228.65 79.6237V76.6483C228.65 76.4162 228.755 76.3001 228.966 76.3001H236.246C236.415 76.3001 236.5 76.4162 236.5 76.6483V79.6237C236.5 81.0375 236.974 82.2614 237.924 83.2954C238.874 84.3083 240.013 84.8148 241.343 84.8148C242.693 84.8148 243.843 84.2978 244.793 83.2638C245.742 82.2087 246.217 80.9953 246.217 79.6237C246.217 78.041 245.183 76.6588 243.115 75.4771C242.777 75.2661 242.334 75.0129 241.786 74.7174C241.258 74.4009 240.625 74.0422 239.886 73.6412C239.148 73.2403 238.43 72.8499 237.734 72.4701C237.038 72.0691 236.362 71.6893 235.708 71.3306C233.345 69.9378 231.583 68.1969 230.422 66.1078C229.283 63.9976 228.713 61.6342 228.713 59.0175C228.713 56.6119 229.304 54.4384 230.486 52.497C231.667 50.5767 233.208 49.0574 235.107 47.939C237.027 46.7995 239.106 46.2297 241.343 46.2297C243.643 46.2297 245.753 46.7995 247.673 47.939C249.593 49.0996 251.123 50.64 252.263 52.5603C253.423 54.4806 254.004 56.633 254.004 59.0175V64.3352C254.004 64.5041 253.919 64.5885 253.751 64.5885H246.47C246.301 64.5885 246.217 64.5041 246.217 64.3352L246.154 59.0175C246.154 57.4982 245.679 56.2637 244.729 55.3141C243.78 54.3645 242.651 53.8897 241.343 53.8897C240.013 53.8897 238.874 54.3962 237.924 55.4091C236.974 56.422 236.5 57.6248 236.5 59.0175C236.5 60.4314 236.795 61.6131 237.386 62.5627C237.998 63.5123 239.106 64.4197 240.709 65.2848C240.878 65.3692 241.269 65.5803 241.881 65.9179C242.493 66.2555 243.168 66.6354 243.906 67.0574C244.666 67.4583 245.352 67.8276 245.964 68.1653C246.576 68.4818 246.945 68.6717 247.072 68.735C249.224 69.9378 250.923 71.415 252.168 73.1664C253.434 74.9179 254.067 77.0703 254.067 79.6237C254.067 82.0926 253.497 84.3083 252.358 86.2708C251.197 88.2333 249.657 89.7843 247.736 90.9238C245.816 92.0633 243.685 92.6331 241.343 92.6331Z" fill="#788AFF"/>
<path d="M195.581 110.387H193.403C193.35 110.387 193.321 110.357 193.315 110.299L191.189 97.9408C191.178 97.8939 191.195 97.8705 191.242 97.8705H193.262C193.309 97.8705 193.338 97.8939 193.35 97.9408L194.501 106.065L195.686 97.9408C195.698 97.8939 195.733 97.8705 195.792 97.8705H197.417C197.464 97.8705 197.493 97.8939 197.505 97.9408L198.673 106.065L199.841 97.9408C199.853 97.8939 199.882 97.8705 199.929 97.8705H201.931C201.99 97.8705 202.013 97.8939 202.002 97.9408L199.858 110.299C199.853 110.322 199.835 110.343 199.806 110.36L199.771 110.387H197.592C197.557 110.387 197.528 110.357 197.505 110.299L196.582 103.843L195.669 110.299C195.663 110.357 195.634 110.387 195.581 110.387ZM205.164 110.387H203.126C203.079 110.387 203.056 110.357 203.056 110.299L203.073 97.9408C203.073 97.8939 203.102 97.8705 203.161 97.8705H205.164C205.222 97.8705 205.251 97.8939 205.251 97.9408L205.234 102.833H207.93V97.9408C207.93 97.8939 207.954 97.8705 208.001 97.8705H210.003C210.062 97.8705 210.091 97.8939 210.091 97.9408L210.126 110.299C210.126 110.357 210.097 110.387 210.038 110.387H208.018C207.96 110.387 207.93 110.357 207.93 110.299V105.011H205.234V110.299C205.234 110.357 205.21 110.387 205.164 110.387ZM210.987 110.299L213.218 97.9408C213.23 97.8939 213.259 97.8705 213.306 97.8705H215.914C215.961 97.8705 215.99 97.8939 216.002 97.9408L218.145 110.299C218.151 110.357 218.128 110.387 218.075 110.387H216.081C216.023 110.387 215.99 110.357 215.985 110.299L215.791 108.981H213.341L213.148 110.299C213.142 110.357 213.112 110.387 213.06 110.387H211.057C211.01 110.387 210.987 110.357 210.987 110.299ZM214.509 102.007L213.701 107.058H215.431L214.693 102.007L214.588 101.34L214.509 102.007ZM223.108 110.387H221.079C221.026 110.387 221 110.357 221 110.299V100.04H218.664C218.605 100.04 218.576 100.011 218.576 99.9522L218.593 97.9408C218.593 97.8939 218.617 97.8705 218.664 97.8705H225.497C225.561 97.8705 225.594 97.8939 225.594 97.9408V99.9522C225.594 100.011 225.57 100.04 225.523 100.04H223.161L223.178 110.299C223.178 110.357 223.155 110.387 223.108 110.387ZM233.27 110.387H231.232C231.174 110.387 231.145 110.357 231.145 110.299L231.162 97.9408C231.162 97.8939 231.186 97.8705 231.232 97.8705H233.253C233.299 97.8705 233.323 97.8939 233.323 97.9408L233.34 110.299C233.34 110.357 233.317 110.387 233.27 110.387ZM242.905 110.369L239.682 110.387C239.623 110.387 239.594 110.357 239.594 110.299L239.629 97.9408C239.629 97.8939 239.653 97.8705 239.7 97.8705L243.064 97.8529C243.731 97.8354 244.334 97.9876 244.873 98.3097C245.417 98.6317 245.851 99.068 246.173 99.6184C246.501 100.163 246.665 100.766 246.665 101.428V106.592C246.665 107.283 246.498 107.916 246.164 108.49C245.824 109.058 245.374 109.511 244.811 109.851C244.249 110.185 243.614 110.357 242.905 110.369ZM243.064 100.005L241.808 100.022L241.79 108.173H242.905C243.35 108.173 243.725 108.018 244.03 107.708C244.334 107.397 244.486 107.026 244.486 106.592V101.41C244.486 101.03 244.346 100.699 244.065 100.418C243.784 100.131 243.45 99.9931 243.064 100.005ZM251.408 110.562C250.769 110.562 250.181 110.398 249.642 110.071C249.109 109.743 248.679 109.306 248.351 108.762C248.029 108.211 247.868 107.608 247.868 106.952L247.886 101.252C247.886 100.585 248.047 99.9844 248.369 99.4515C248.685 98.9128 249.112 98.4824 249.651 98.1604C250.19 97.8325 250.775 97.6685 251.408 97.6685C252.063 97.6685 252.652 97.8295 253.173 98.1516C253.7 98.4736 254.122 98.9069 254.438 99.4515C254.76 99.9902 254.921 100.59 254.921 101.252L254.939 106.952C254.939 107.608 254.78 108.208 254.464 108.753C254.142 109.303 253.715 109.743 253.182 110.071C252.649 110.398 252.058 110.562 251.408 110.562ZM251.408 108.393C251.771 108.393 252.087 108.247 252.356 107.954C252.626 107.655 252.76 107.321 252.76 106.952L252.743 101.252C252.743 100.854 252.617 100.517 252.365 100.242C252.113 99.9668 251.794 99.8292 251.408 99.8292C251.039 99.8292 250.723 99.9639 250.459 100.233C250.196 100.503 250.064 100.842 250.064 101.252V106.952C250.064 107.345 250.196 107.684 250.459 107.971C250.723 108.252 251.039 108.393 251.408 108.393Z" fill="#788AFF"/>
<path d="M106.819 41.7422H104.782C104.735 41.7422 104.711 41.7129 104.711 41.6544L104.747 29.2962C104.747 29.2494 104.77 29.226 104.817 29.226H107.013C107.06 29.226 107.101 29.2494 107.136 29.2962L108.778 31.6677L110.412 29.2962C110.447 29.2494 110.491 29.226 110.544 29.226H112.748C112.801 29.226 112.827 29.2494 112.827 29.2962L112.862 41.6544C112.862 41.7129 112.839 41.7422 112.792 41.7422H110.754C110.708 41.7422 110.684 41.7129 110.684 41.6544L110.667 32.4758L108.778 35.2162L106.907 32.4758L106.89 41.6544C106.89 41.7129 106.866 41.7422 106.819 41.7422ZM118.124 41.7422H116.059C116.018 41.7422 115.998 41.7188 115.998 41.6719L116.016 36.56L113.609 29.2962C113.597 29.2494 113.615 29.226 113.662 29.226H115.664C115.723 29.226 115.758 29.2494 115.77 29.2962L117.096 34.1358L118.449 29.2962C118.46 29.2494 118.49 29.226 118.536 29.226H120.557C120.603 29.226 120.621 29.2494 120.609 29.2962L118.176 36.4898L118.194 41.6719C118.194 41.7188 118.17 41.7422 118.124 41.7422Z" fill="#788AFF"/>
</svg>
