<svg width="1200" height="199" viewBox="0 0 1200 199" fill="none" xmlns="http://www.w3.org/2000/svg">
<rect width="1200" height="199" fill="black"/>
<path d="M122.531 128.864C119.392 128.864 116.498 128.058 113.848 126.445C111.228 124.832 109.126 122.687 107.542 120.009C105.987 117.302 105.209 114.336 105.209 111.111V107.051C105.209 106.734 105.353 106.575 105.641 106.575H115.576C115.807 106.575 115.922 106.734 115.922 107.051V111.111C115.922 113.04 116.57 114.71 117.866 116.121C119.161 117.504 120.716 118.195 122.531 118.195C124.374 118.195 125.943 117.489 127.239 116.078C128.535 114.638 129.183 112.983 129.183 111.111C129.183 108.951 127.772 107.065 124.949 105.452C124.489 105.164 123.884 104.819 123.135 104.416C122.415 103.984 121.551 103.494 120.544 102.947C119.536 102.4 118.557 101.867 117.606 101.349C116.656 100.802 115.735 100.283 114.842 99.7938C111.617 97.8932 109.212 95.5175 107.628 92.6667C106.073 89.787 105.296 86.5618 105.296 82.991C105.296 79.7082 106.102 76.7422 107.715 74.0929C109.327 71.4724 111.43 69.3991 114.021 67.8729C116.642 66.3178 119.478 65.5403 122.531 65.5403C125.669 65.5403 128.549 66.3178 131.17 67.8729C133.79 69.4567 135.878 71.5588 137.433 74.1793C139.017 76.7998 139.808 79.737 139.808 82.991V90.2478C139.808 90.4781 139.693 90.5933 139.463 90.5933H129.528C129.298 90.5933 129.183 90.4781 129.183 90.2478L129.096 82.991C129.096 80.9177 128.448 79.2331 127.152 77.9372C125.857 76.6414 124.316 75.9935 122.531 75.9935C120.716 75.9935 119.161 76.6846 117.866 78.0668C116.57 79.4491 115.922 81.0905 115.922 82.991C115.922 84.9204 116.325 86.533 117.131 87.8288C117.966 89.1247 119.478 90.3629 121.667 91.5436C121.897 91.6588 122.43 91.9467 123.265 92.4075C124.1 92.8682 125.021 93.3866 126.029 93.9625C127.066 94.5096 128.002 95.0136 128.837 95.4743C129.672 95.9063 130.176 96.1654 130.349 96.2518C133.286 97.8932 135.604 99.909 137.303 102.299C139.031 104.689 139.895 107.626 139.895 111.111C139.895 114.48 139.117 117.504 137.562 120.182C135.979 122.86 133.876 124.976 131.256 126.531C128.635 128.086 125.727 128.864 122.531 128.864ZM156.395 128H146.374C146.144 128 146.029 127.856 146.029 127.568L146.201 66.8794C146.201 66.5914 146.316 66.4474 146.547 66.4474H156.482C156.712 66.4474 156.827 66.5914 156.827 66.8794V87.8288L170.693 66.793C170.923 66.5626 171.139 66.4474 171.341 66.4474H181.491C181.751 66.4474 181.808 66.5626 181.664 66.793L166.373 91.198L183.522 127.654C183.666 127.885 183.522 128 183.09 128H172.291C172.003 128 171.83 127.885 171.773 127.654L159.808 101.651L156.741 106.489V127.568C156.741 127.856 156.626 128 156.395 128ZM197.949 128H187.927C187.64 128 187.496 127.856 187.496 127.568L187.582 66.793C187.582 66.5626 187.697 66.4474 187.927 66.4474H197.862C198.093 66.4474 198.208 66.5626 198.208 66.793L198.294 127.568C198.294 127.856 198.179 128 197.949 128ZM235.01 128H206.415C206.184 128 206.069 127.856 206.069 127.568L206.156 66.8794C206.156 66.5914 206.3 66.4474 206.588 66.4474H216.436C216.724 66.4474 216.868 66.5914 216.868 66.8794L216.782 117.115H235.01C235.298 117.115 235.442 117.259 235.442 117.547V127.568C235.442 127.856 235.298 128 235.01 128ZM270.17 128H241.575C241.345 128 241.23 127.856 241.23 127.568L241.316 66.8794C241.316 66.5914 241.46 66.4474 241.748 66.4474H251.597C251.885 66.4474 252.029 66.5914 252.029 66.8794L251.942 117.115H270.17C270.458 117.115 270.602 117.259 270.602 117.547V127.568C270.602 127.856 270.458 128 270.17 128ZM291.422 128.864C288.283 128.864 285.389 128.058 282.74 126.445C280.12 124.832 278.017 122.687 276.434 120.009C274.879 117.302 274.101 114.336 274.101 111.111V107.051C274.101 106.734 274.245 106.575 274.533 106.575H284.468C284.698 106.575 284.813 106.734 284.813 107.051V111.111C284.813 113.04 285.461 114.71 286.757 116.121C288.053 117.504 289.608 118.195 291.422 118.195C293.265 118.195 294.835 117.489 296.13 116.078C297.426 114.638 298.074 112.983 298.074 111.111C298.074 108.951 296.663 107.065 293.841 105.452C293.38 105.164 292.776 104.819 292.027 104.416C291.307 103.984 290.443 103.494 289.435 102.947C288.427 102.4 287.448 101.867 286.498 101.349C285.548 100.802 284.626 100.283 283.734 99.7938C280.508 97.8932 278.104 95.5175 276.52 92.6667C274.965 89.787 274.187 86.5618 274.187 82.991C274.187 79.7082 274.994 76.7422 276.606 74.0929C278.219 71.4724 280.321 69.3991 282.913 67.8729C285.533 66.3178 288.37 65.5403 291.422 65.5403C294.561 65.5403 297.441 66.3178 300.061 67.8729C302.682 69.4567 304.769 71.5588 306.324 74.1793C307.908 76.7998 308.7 79.737 308.7 82.991V90.2478C308.7 90.4781 308.585 90.5933 308.355 90.5933H298.42C298.189 90.5933 298.074 90.4781 298.074 90.2478L297.988 82.991C297.988 80.9177 297.34 79.2331 296.044 77.9372C294.748 76.6414 293.208 75.9935 291.422 75.9935C289.608 75.9935 288.053 76.6846 286.757 78.0668C285.461 79.4491 284.813 81.0905 284.813 82.991C284.813 84.9204 285.217 86.533 286.023 87.8288C286.858 89.1247 288.37 90.3629 290.558 91.5436C290.789 91.6588 291.321 91.9467 292.156 92.4075C292.992 92.8682 293.913 93.3866 294.921 93.9625C295.958 94.5096 296.894 95.0136 297.729 95.4743C298.564 95.9063 299.068 96.1654 299.24 96.2518C302.178 97.8932 304.496 99.909 306.195 102.299C307.923 104.689 308.786 107.626 308.786 111.111C308.786 114.48 308.009 117.504 306.454 120.182C304.87 122.86 302.768 124.976 300.148 126.531C297.527 128.086 294.619 128.864 291.422 128.864Z" fill="#788AFF"/>
<path d="M228.974 152.875H226.002C225.93 152.875 225.89 152.835 225.882 152.755L222.981 135.891C222.965 135.827 222.989 135.795 223.053 135.795H225.81C225.874 135.795 225.914 135.827 225.93 135.891L227.5 146.978L229.118 135.891C229.134 135.827 229.182 135.795 229.262 135.795H231.479C231.543 135.795 231.583 135.827 231.599 135.891L233.193 146.978L234.788 135.891C234.804 135.827 234.844 135.795 234.907 135.795H237.64C237.72 135.795 237.752 135.827 237.736 135.891L234.812 152.755C234.804 152.787 234.78 152.815 234.74 152.839L234.692 152.875H231.719C231.671 152.875 231.631 152.835 231.599 152.755L230.341 143.945L229.094 152.755C229.086 152.835 229.046 152.875 228.974 152.875ZM242.051 152.875H239.27C239.206 152.875 239.174 152.835 239.174 152.755L239.198 135.891C239.198 135.827 239.238 135.795 239.318 135.795H242.051C242.131 135.795 242.171 135.827 242.171 135.891L242.147 142.567H245.827V135.891C245.827 135.827 245.859 135.795 245.923 135.795H248.655C248.735 135.795 248.775 135.827 248.775 135.891L248.823 152.755C248.823 152.835 248.783 152.875 248.703 152.875H245.947C245.867 152.875 245.827 152.835 245.827 152.755V145.54H242.147V152.755C242.147 152.835 242.115 152.875 242.051 152.875ZM249.998 152.755L253.042 135.891C253.058 135.827 253.098 135.795 253.162 135.795H256.722C256.786 135.795 256.826 135.827 256.842 135.891L259.766 152.755C259.774 152.835 259.742 152.875 259.67 152.875H256.95C256.87 152.875 256.826 152.835 256.818 152.755L256.554 150.957H253.21L252.946 152.755C252.938 152.835 252.898 152.875 252.826 152.875H250.094C250.03 152.875 249.998 152.835 249.998 152.755ZM254.804 141.44L253.701 148.332H256.063L255.056 141.44L254.912 140.529L254.804 141.44ZM266.538 152.875H263.77C263.698 152.875 263.662 152.835 263.662 152.755V138.756H260.474C260.394 138.756 260.354 138.716 260.354 138.636L260.378 135.891C260.378 135.827 260.41 135.795 260.474 135.795H269.799C269.887 135.795 269.93 135.827 269.93 135.891V138.636C269.93 138.716 269.899 138.756 269.835 138.756H266.61L266.634 152.755C266.634 152.835 266.602 152.875 266.538 152.875ZM280.406 152.875H277.625C277.546 152.875 277.506 152.835 277.506 152.755L277.53 135.891C277.53 135.827 277.562 135.795 277.625 135.795H280.382C280.446 135.795 280.478 135.827 280.478 135.891L280.502 152.755C280.502 152.835 280.47 152.875 280.406 152.875ZM293.555 152.851L289.156 152.875C289.076 152.875 289.036 152.835 289.036 152.755L289.084 135.891C289.084 135.827 289.116 135.795 289.18 135.795L293.771 135.771C294.682 135.747 295.505 135.955 296.24 136.394C296.983 136.834 297.574 137.429 298.014 138.18C298.461 138.923 298.685 139.746 298.685 140.649V147.697C298.685 148.64 298.457 149.503 298.002 150.286C297.538 151.061 296.923 151.68 296.156 152.144C295.389 152.599 294.522 152.835 293.555 152.851ZM293.771 138.708L292.057 138.732L292.033 149.855H293.555C294.162 149.855 294.674 149.643 295.089 149.219C295.505 148.796 295.712 148.288 295.712 147.697V140.625C295.712 140.106 295.521 139.654 295.137 139.271C294.753 138.879 294.298 138.692 293.771 138.708ZM305.157 153.115C304.286 153.115 303.483 152.891 302.748 152.444C302.021 151.996 301.434 151.401 300.986 150.658C300.547 149.906 300.327 149.083 300.327 148.188L300.351 140.41C300.351 139.499 300.571 138.68 301.01 137.952C301.442 137.217 302.025 136.63 302.76 136.191C303.495 135.743 304.294 135.519 305.157 135.519C306.052 135.519 306.855 135.739 307.566 136.179C308.286 136.618 308.861 137.209 309.292 137.952C309.732 138.688 309.952 139.507 309.952 140.41L309.976 148.188C309.976 149.083 309.76 149.902 309.328 150.646C308.889 151.397 308.306 151.996 307.578 152.444C306.851 152.891 306.044 153.115 305.157 153.115ZM305.157 150.154C305.653 150.154 306.084 149.954 306.452 149.555C306.819 149.147 307.003 148.692 307.003 148.188L306.979 140.41C306.979 139.866 306.807 139.407 306.464 139.031C306.12 138.656 305.685 138.468 305.157 138.468C304.654 138.468 304.222 138.652 303.863 139.019C303.503 139.387 303.323 139.85 303.323 140.41V148.188C303.323 148.724 303.503 149.187 303.863 149.579C304.222 149.962 304.654 150.154 305.157 150.154Z" fill="#788AFF"/>
<path d="M107.848 59.2031H105.067C105.003 59.2031 104.971 59.1632 104.971 59.0833L105.019 42.219C105.019 42.1551 105.051 42.1231 105.115 42.1231H108.111C108.175 42.1231 108.231 42.1551 108.279 42.219L110.52 45.4552L112.75 42.219C112.798 42.1551 112.858 42.1231 112.93 42.1231H115.938C116.01 42.1231 116.046 42.1551 116.046 42.219L116.094 59.0833C116.094 59.1632 116.062 59.2031 115.998 59.2031H113.217C113.153 59.2031 113.121 59.1632 113.121 59.0833L113.097 46.5579L110.52 50.2975L107.967 46.5579L107.943 59.0833C107.943 59.1632 107.911 59.2031 107.848 59.2031ZM123.273 59.2031H120.457C120.401 59.2031 120.373 59.1712 120.373 59.1072L120.397 52.1314L117.113 42.219C117.097 42.1551 117.121 42.1231 117.185 42.1231H119.917C119.997 42.1231 120.045 42.1551 120.061 42.219L121.871 48.8233L123.717 42.219C123.733 42.1551 123.773 42.1231 123.837 42.1231H126.594C126.658 42.1231 126.681 42.1551 126.666 42.219L123.345 52.0355L123.369 59.1072C123.369 59.1712 123.337 59.2031 123.273 59.2031Z" fill="#788AFF"/>
</svg>
