<svg width="1063" height="290" viewBox="0 0 1063 290" fill="none" xmlns="http://www.w3.org/2000/svg">
<g filter="url(#filter0_d_531_1925)">
<path d="M54.5152 25.0718H73.8586V81.1012C73.8586 87.5764 72.4359 93.2175 69.5905 98.0245C66.7451 102.803 62.7773 106.507 57.6869 109.137C52.5965 111.738 46.6838 113.039 39.9489 113.039C33.1356 113.039 27.1838 111.738 22.0934 109.137C17.003 106.507 13.0482 102.803 10.2289 98.0245C7.40964 93.2175 6 87.5764 6 81.1012V25.0718H25.3826V79.2773C25.3826 82.2746 25.983 84.9467 27.1838 87.2936C28.4107 89.6406 30.1205 91.4785 32.3133 92.8075C34.5061 94.1365 37.0513 94.801 39.9489 94.801C42.8465 94.801 45.3786 94.1365 47.5453 92.8075C49.7381 91.4785 51.4479 89.6406 52.6748 87.2936C53.9017 84.9467 54.5152 82.2746 54.5152 79.2773V25.0718Z" fill="#788AFF"/>
<path d="M105.39 25.0718V111.936H86.007V25.0718H105.39Z" fill="#788AFF"/>
<path d="M154.678 21L128.835 125H112.506L138.35 21H154.678Z" fill="#788AFF"/>
<path d="M210.33 25.0718H229.673V81.1012C229.673 87.5764 228.25 93.2175 225.405 98.0245C222.56 102.803 218.592 106.507 213.501 109.137C208.411 111.738 202.498 113.039 195.763 113.039C188.95 113.039 182.998 111.738 177.908 109.137C172.817 106.507 168.863 102.803 166.043 98.0245C163.224 93.2175 161.814 87.5764 161.814 81.1012V25.0718H181.197V79.2773C181.197 82.2746 181.797 84.9467 182.998 87.2936C184.225 89.6406 185.935 91.4785 188.128 92.8075C190.321 94.1365 192.866 94.801 195.763 94.801C198.661 94.801 201.193 94.1365 203.36 92.8075C205.552 91.4785 207.262 89.6406 208.489 87.2936C209.716 84.9467 210.33 82.2746 210.33 79.2773V25.0718Z" fill="#788AFF"/>
<path d="M261.439 25.0718L276.084 52.5139H276.71L291.511 25.0718H313.204L289.005 68.5041L313.987 111.936H291.746L276.71 84.1974H276.084L261.047 111.936H238.963L263.827 68.5041L239.589 25.0718H261.439Z" fill="#788AFF"/>
<path d="M376.56 111.936H346.918V25.0718H376.521C384.691 25.0718 391.726 26.8108 397.626 30.2887C403.552 33.7384 408.12 38.7151 411.331 45.2186C414.542 51.6939 416.147 59.4416 416.147 68.4617C416.147 77.5101 414.542 85.286 411.331 91.7896C408.146 98.2931 403.591 103.284 397.665 106.762C391.739 110.212 384.704 111.936 376.56 111.936ZM366.301 94.0375H375.816C380.306 94.0375 384.104 93.2175 387.21 91.5775C390.343 89.9092 392.705 87.2088 394.298 83.4764C395.916 79.7156 396.725 74.7107 396.725 68.4617C396.725 62.2126 395.916 57.236 394.298 53.5318C392.679 49.7994 390.291 47.1131 387.132 45.4731C383.999 43.8048 380.136 42.9706 375.542 42.9706H366.301V94.0375Z" fill="#788AFF"/>
<path d="M427.463 111.936V25.0718H483.379V42.1224H446.846V59.9364H480.521V77.0294H446.846V94.8858H483.379V111.936H427.463Z" fill="#788AFF"/>
<path d="M538.864 51.1142C538.603 48.0038 537.442 45.5862 535.379 43.8613C533.343 42.1082 530.433 41.2317 526.647 41.2317C524.141 41.2317 522.053 41.5851 520.382 42.292C518.712 42.9989 517.459 43.9744 516.623 45.2186C515.788 46.4345 515.357 47.8342 515.331 49.4176C515.279 50.7183 515.514 51.8635 516.036 52.8532C516.584 53.8429 517.367 54.7194 518.385 55.4829C519.43 56.2181 520.682 56.8684 522.144 57.4339C523.606 57.9995 525.251 58.4943 527.078 58.9184L533.97 60.615C537.938 61.5481 541.436 62.7923 544.464 64.3475C547.518 65.9027 550.076 67.7548 552.138 69.9038C554.227 72.0528 555.806 74.5269 556.876 77.3263C557.947 80.1256 558.495 83.2643 558.521 86.7423C558.495 92.2279 557.216 96.9358 554.684 100.866C552.152 104.797 548.51 107.808 543.759 109.901C539.034 111.993 533.33 113.039 526.647 113.039C519.939 113.039 514.091 111.951 509.105 109.773C504.119 107.596 500.243 104.288 497.476 99.8483C494.709 95.4089 493.286 89.7961 493.208 83.0098H511.768C511.924 85.8091 512.616 88.1419 513.843 90.0082C515.07 91.8744 516.754 93.2882 518.894 94.2496C521.061 95.211 523.567 95.6917 526.412 95.6917C529.023 95.6917 531.242 95.31 533.069 94.5465C534.923 93.783 536.345 92.7227 537.337 91.3654C538.329 90.0082 538.838 88.453 538.864 86.6998C538.838 85.0598 538.368 83.6602 537.455 82.5008C536.541 81.3132 535.131 80.2953 533.226 79.447C531.346 78.5704 528.945 77.7646 526.021 77.0294L517.641 74.9087C510.698 73.1838 505.229 70.3986 501.235 66.553C497.241 62.6792 495.257 57.4481 495.283 50.8597C495.257 45.4872 496.588 40.7792 499.277 36.7357C501.966 32.6922 505.686 29.5394 510.437 27.2773C515.188 25.0152 520.604 23.8842 526.687 23.8842C532.899 23.8842 538.29 25.0294 542.858 27.3197C547.453 29.5818 551.016 32.7629 553.548 36.863C556.08 40.963 557.372 45.7134 557.425 51.1142H538.864Z" fill="#788AFF"/>
<path d="M587.693 25.0718V111.936H568.31V25.0718H587.693Z" fill="#788AFF"/>
<path d="M652.487 53.447C652.044 51.6656 651.391 50.0963 650.529 48.739C649.668 47.3535 648.611 46.18 647.358 45.2186C646.105 44.2572 644.669 43.5362 643.051 43.0555C641.432 42.5465 639.657 42.292 637.725 42.292C633.836 42.292 630.468 43.31 627.623 45.3458C624.804 47.3817 622.624 50.3507 621.084 54.2529C619.544 58.1267 618.773 62.8347 618.773 68.3768C618.773 73.9473 619.517 78.6977 621.005 82.6281C622.493 86.5585 624.647 89.5557 627.466 91.6199C630.285 93.6841 633.705 94.7162 637.725 94.7162C641.275 94.7162 644.277 94.0941 646.731 92.8499C649.211 91.5775 651.091 89.782 652.37 87.4633C653.649 85.1447 654.289 82.416 654.289 79.2773L657.891 79.7439H638.391V64.4323H672.966V75.9266C672.966 83.7026 671.439 90.3616 668.385 95.9038C665.357 101.446 661.18 105.701 655.855 108.67C650.556 111.639 644.46 113.124 637.569 113.124C629.92 113.124 623.198 111.328 617.403 107.737C611.608 104.146 607.092 99.0283 603.855 92.3834C600.618 85.7102 598.999 77.7928 598.999 68.6313C598.999 61.5057 599.978 55.186 601.936 49.6721C603.894 44.13 606.622 39.4361 610.12 35.5905C613.644 31.745 617.716 28.8325 622.337 26.8532C626.983 24.8738 631.982 23.8842 637.334 23.8842C641.98 23.8842 646.301 24.6052 650.295 26.0473C654.315 27.4894 657.865 29.5253 660.945 32.155C664.052 34.7847 666.571 37.9092 668.502 41.5286C670.434 45.1479 671.635 49.1207 672.105 53.447H652.487Z" fill="#788AFF"/>
<path d="M752.641 25.0718V111.936H736.195L704.282 61.8026H703.773V111.936H684.39V25.0718H701.071L732.631 75.1207H733.297V25.0718H752.641Z" fill="#788AFF"/>
<path d="M764.828 111.936V25.0718H820.744V42.1224H784.211V59.9364H817.885V77.0294H784.211V94.8858H820.744V111.936H764.828Z" fill="#788AFF"/>
<path d="M832.882 111.936V25.0718H866.009C872.013 25.0718 877.195 26.2452 881.554 28.5922C885.94 30.9108 889.32 34.2474 891.696 38.602C894.071 42.9282 895.259 48.0604 895.259 53.9984C895.259 60.0212 894.045 65.1392 891.617 69.3524C889.19 73.5373 885.744 76.7325 881.28 78.938C876.816 81.1153 871.53 82.2039 865.422 82.2039H844.473V65.6623H861.819C864.743 65.6623 867.184 65.2523 869.142 64.4323C871.125 63.584 872.626 62.3116 873.645 60.615C874.663 58.8902 875.172 56.6846 875.172 53.9984C875.172 51.3121 874.663 49.0924 873.645 47.3393C872.626 45.5579 871.125 44.2289 869.142 43.3524C867.158 42.4475 864.717 41.9951 861.819 41.9951H852.265V111.936H832.882ZM878.03 72.2365L898 111.936H876.855L857.277 72.2365H878.03Z" fill="#788AFF"/>
</g>
<path d="M977.258 118.288C971.191 118.288 965.953 117.2 961.546 115.025C957.138 112.85 953.747 109.902 951.371 106.182C949.024 102.432 947.851 98.2539 947.851 93.6461C947.851 90.2117 948.538 87.1637 949.912 84.5021C951.285 81.8404 953.203 79.3934 955.664 77.161C958.126 74.9001 960.988 72.6534 964.25 70.421L981.293 59.2163C983.497 57.814 985.114 56.34 986.145 54.7946C987.175 53.2205 987.69 51.5176 987.69 49.6859C987.69 47.9401 986.989 46.3231 985.586 44.8348C984.184 43.3466 982.195 42.6168 979.619 42.6454C977.902 42.6454 976.414 43.0318 975.155 43.8045C973.895 44.5486 972.908 45.536 972.192 46.7667C971.505 47.9687 971.162 49.3138 971.162 50.8021C971.162 52.6338 971.677 54.4941 972.707 56.383C973.738 58.2719 975.112 60.2753 976.829 62.3932C978.546 64.4824 980.421 66.7434 982.453 69.1761L1024.14 117H1005.08L970.303 78.2772C968.014 75.6728 965.724 72.9539 963.435 70.1205C961.174 67.2585 959.285 64.2248 957.768 61.0194C956.251 57.7853 955.493 54.2794 955.493 50.5016C955.493 46.2372 956.48 42.4021 958.455 38.9964C960.458 35.5906 963.263 32.9003 966.869 30.9255C970.475 28.9221 974.682 27.9204 979.49 27.9204C984.184 27.9204 988.234 28.8792 991.64 30.7967C995.074 32.6857 997.707 35.2042 999.539 38.3524C1001.4 41.472 1002.33 44.9064 1002.33 48.6556C1002.33 52.8055 1001.3 56.569 999.238 59.9462C997.206 63.2947 994.344 66.2998 990.652 68.9614L972.707 81.8833C970.275 83.6578 968.472 85.4751 967.298 87.3354C966.154 89.1671 965.581 90.9272 965.581 92.6158C965.581 94.7051 966.096 96.5797 967.127 98.2396C968.157 99.8996 969.617 101.216 971.505 102.189C973.394 103.134 975.612 103.606 978.16 103.606C981.251 103.606 984.299 102.905 987.304 101.502C990.337 100.071 993.085 98.0536 995.546 95.4492C998.036 92.8162 1000.03 89.6966 1001.51 86.0905C1003 82.4844 1003.75 78.4919 1003.75 74.113H1018.9C1018.9 79.4936 1018.31 84.3447 1017.14 88.6663C1015.97 92.9593 1014.34 96.7085 1012.25 99.9139C1010.16 103.091 1007.77 105.695 1005.08 107.727C1004.22 108.271 1003.39 108.786 1002.59 109.273C1001.79 109.759 1000.96 110.274 1000.1 110.818C996.834 113.451 993.185 115.354 989.15 116.528C985.143 117.701 981.179 118.288 977.258 118.288Z" fill="white"/>
<g filter="url(#filter1_d_531_1925)">
<path d="M6 282.629V182.371H48.4813V202.05H21.0417V222.611H45.7768V242.34H21.0417V282.629H6Z" fill="#788AFF"/>
<path d="M56.0553 282.629V182.371H81.7629C86.4222 182.371 90.4435 183.725 93.8266 186.434C97.23 189.11 99.8534 192.961 101.697 197.987C103.54 202.981 104.462 208.904 104.462 215.758C104.462 222.709 103.52 228.616 101.636 233.479C99.7521 238.309 97.078 241.997 93.6139 244.543C90.1497 247.056 86.0475 248.312 81.3071 248.312H65.0499V229.22H78.5114C80.7804 229.22 82.6745 228.747 84.1939 227.8C85.7335 226.821 86.8983 225.353 87.6884 223.394C88.4785 221.404 88.8735 218.858 88.8735 215.758C88.8735 212.657 88.4785 210.095 87.6884 208.072C86.8983 206.016 85.7335 204.482 84.1939 203.47C82.6542 202.426 80.7601 201.904 78.5114 201.904H71.097V282.629H56.0553ZM91.0917 236.808L106.589 282.629H90.1801L74.9865 236.808H91.0917Z" fill="#788AFF"/>
<path d="M171.451 232.5C171.451 243.531 170.134 252.881 167.5 260.551C164.867 268.22 161.301 274.046 156.804 278.028C152.327 282.009 147.303 284 141.732 284C136.141 284 131.107 281.993 126.63 277.979C122.153 273.964 118.597 268.139 115.964 260.502C113.35 252.832 112.044 243.498 112.044 232.5C112.044 221.469 113.35 212.119 115.964 204.449C118.597 196.78 122.153 190.954 126.63 186.972C131.107 182.991 136.141 181 141.732 181C147.303 181 152.327 182.991 156.804 186.972C161.301 190.954 164.867 196.78 167.5 204.449C170.134 212.119 171.451 221.469 171.451 232.5ZM156.075 232.5C156.075 225.973 155.497 220.457 154.343 215.953C153.208 211.45 151.567 208.039 149.42 205.722C147.293 203.405 144.73 202.246 141.732 202.246C138.754 202.246 136.191 203.405 134.044 205.722C131.897 208.039 130.246 211.45 129.091 215.953C127.956 220.457 127.389 225.973 127.389 232.5C127.389 239.027 127.956 244.543 129.091 249.047C130.246 253.55 131.897 256.961 134.044 259.278C136.191 261.595 138.754 262.754 141.732 262.754C144.73 262.754 147.293 261.595 149.42 259.278C151.567 256.961 153.208 253.55 154.343 249.047C155.497 244.543 156.075 239.027 156.075 232.5Z" fill="#788AFF"/>
<path d="M233.197 182.371V282.629H220.435L195.669 224.765H195.274V282.629H180.233V182.371H193.178L217.67 240.137H218.186V182.371H233.197Z" fill="#788AFF"/>
<path d="M240.62 202.05V182.371H293.22V202.05H274.349V282.629H259.52V202.05H240.62Z" fill="#788AFF"/>
<path d="M329.183 223.297V241.703H300.376V223.297H329.183Z" fill="#788AFF"/>
<path d="M339.674 282.629V182.371H383.067V202.05H354.716V222.611H380.849V242.34H354.716V262.95H383.067V282.629H339.674Z" fill="#788AFF"/>
<path d="M445.452 182.371V282.629H432.689L407.924 224.765H407.529V282.629H392.487V182.371H405.432L429.924 240.137H430.441V182.371H445.452Z" fill="#788AFF"/>
<path d="M477.913 282.629H454.91V182.371H477.883C484.224 182.371 489.683 184.378 494.262 188.392C498.86 192.374 502.405 198.118 504.897 205.624C507.389 213.098 508.635 222.04 508.635 232.451C508.635 242.895 507.389 251.87 504.897 259.376C502.426 266.882 498.89 272.643 494.292 276.657C489.693 280.638 484.234 282.629 477.913 282.629ZM469.952 261.971H477.336C480.82 261.971 483.768 261.024 486.179 259.131C488.609 257.206 490.443 254.089 491.679 249.781C492.935 245.44 493.563 239.664 493.563 232.451C493.563 225.238 492.935 219.494 491.679 215.219C490.423 210.911 488.569 207.811 486.118 205.918C483.687 203.992 480.689 203.029 477.123 203.029H469.952V261.971Z" fill="#788AFF"/>
<path d="M558.804 282.629H535.801V182.371H558.774C565.114 182.371 570.574 184.378 575.152 188.392C579.751 192.374 583.296 198.118 585.788 205.624C588.28 213.098 589.525 222.04 589.525 232.451C589.525 242.895 588.28 251.87 585.788 259.376C583.316 266.882 579.781 272.643 575.183 276.657C570.584 280.638 565.124 282.629 558.804 282.629ZM550.842 261.971H558.227C561.711 261.971 564.658 261.024 567.069 259.131C569.5 257.206 571.334 254.089 572.569 249.781C573.825 245.44 574.453 239.664 574.453 232.451C574.453 225.238 573.825 219.494 572.569 215.219C571.313 210.911 569.46 207.811 567.008 205.918C564.577 203.992 561.579 203.029 558.014 203.029H550.842V261.971Z" fill="#788AFF"/>
<path d="M598.307 282.629V182.371H641.7V202.05H613.349V222.611H639.482V242.34H613.349V262.95H641.7V282.629H598.307Z" fill="#788AFF"/>
<path d="M665.25 182.371L679.168 255.802H679.684L693.601 182.371H710.436L689.438 282.629H669.413L648.416 182.371H665.25Z" fill="#788AFF"/>
<path d="M717.136 282.629V182.371H760.529V202.05H732.178V222.611H758.311V242.34H732.178V262.95H760.529V282.629H717.136Z" fill="#788AFF"/>
<path d="M769.949 282.629V182.371H784.991V262.95H810.881V282.629H769.949Z" fill="#788AFF"/>
<path d="M874.983 232.5C874.983 243.531 873.666 252.881 871.032 260.551C868.399 268.22 864.833 274.046 860.336 278.028C855.859 282.009 850.835 284 845.264 284C839.673 284 834.639 281.993 830.162 277.979C825.684 273.964 822.129 268.139 819.496 260.502C816.882 252.832 815.576 243.498 815.576 232.5C815.576 221.469 816.882 212.119 819.496 204.449C822.129 196.78 825.684 190.954 830.162 186.972C834.639 182.991 839.673 181 845.264 181C850.835 181 855.859 182.991 860.336 186.972C864.833 190.954 868.399 196.78 871.032 204.449C873.666 212.119 874.983 221.469 874.983 232.5ZM859.607 232.5C859.607 225.973 859.029 220.457 857.875 215.953C856.74 211.45 855.099 208.039 852.952 205.722C850.825 203.405 848.262 202.246 845.264 202.246C842.286 202.246 839.723 203.405 837.576 205.722C835.429 208.039 833.778 211.45 832.623 215.953C831.488 220.457 830.921 225.973 830.921 232.5C830.921 239.027 831.488 244.543 832.623 249.047C833.778 253.55 835.429 256.961 837.576 259.278C839.723 261.595 842.286 262.754 845.264 262.754C848.262 262.754 850.825 261.595 852.952 259.278C855.099 256.961 856.74 253.55 857.875 249.047C859.029 244.543 859.607 239.027 859.607 232.5Z" fill="#788AFF"/>
<path d="M883.765 282.629V182.371H909.472C914.132 182.371 918.153 183.839 921.536 186.777C924.939 189.681 927.563 193.744 929.406 198.966C931.25 204.155 932.171 210.193 932.171 217.079C932.171 223.998 931.229 230.052 929.345 235.241C927.482 240.398 924.818 244.396 921.354 247.235C917.889 250.075 913.777 251.494 909.016 251.494H893.154V232.402H906.221C908.49 232.402 910.384 231.766 911.903 230.493C913.443 229.22 914.608 227.441 915.398 225.157C916.188 222.84 916.583 220.147 916.583 217.079C916.583 213.979 916.188 211.303 915.398 209.051C914.608 206.766 913.443 205.004 911.903 203.764C910.363 202.524 908.469 201.904 906.221 201.904H898.806V282.629H883.765Z" fill="#788AFF"/>
<path d="M939.586 282.629V182.371H982.979V202.05H954.628V222.611H980.761V242.34H954.628V262.95H982.979V282.629H939.586Z" fill="#788AFF"/>
<path d="M992.399 282.629V182.371H1018.11C1022.77 182.371 1026.79 183.725 1030.17 186.434C1033.57 189.11 1036.2 192.961 1038.04 197.987C1039.88 202.981 1040.81 208.904 1040.81 215.758C1040.81 222.709 1039.86 228.616 1037.98 233.479C1036.1 238.309 1033.42 241.997 1029.96 244.543C1026.49 247.056 1022.39 248.312 1017.65 248.312H1001.39V229.22H1014.85C1017.12 229.22 1019.02 228.747 1020.54 227.8C1022.08 226.821 1023.24 225.353 1024.03 223.394C1024.82 221.404 1025.22 218.858 1025.22 215.758C1025.22 212.657 1024.82 210.095 1024.03 208.072C1023.24 206.016 1022.08 204.482 1020.54 203.47C1019 202.426 1017.1 201.904 1014.85 201.904H1007.44V282.629H992.399ZM1027.44 236.808L1042.93 282.629H1026.52L1011.33 236.808H1027.44Z" fill="#788AFF"/>
</g>
<defs>
<filter id="filter0_d_531_1925" x="0" y="21" width="898" height="110" filterUnits="userSpaceOnUse" color-interpolation-filters="sRGB">
<feFlood flood-opacity="0" result="BackgroundImageFix"/>
<feColorMatrix in="SourceAlpha" type="matrix" values="0 0 0 0 0 0 0 0 0 0 0 0 0 0 0 0 0 0 127 0" result="hardAlpha"/>
<feOffset dx="-3" dy="3"/>
<feGaussianBlur stdDeviation="1.5"/>
<feComposite in2="hardAlpha" operator="out"/>
<feColorMatrix type="matrix" values="0 0 0 0 1 0 0 0 0 1 0 0 0 0 1 0 0 0 0.25 0"/>
<feBlend mode="normal" in2="BackgroundImageFix" result="effect1_dropShadow_531_1925"/>
<feBlend mode="normal" in="SourceGraphic" in2="effect1_dropShadow_531_1925" result="shape"/>
</filter>
<filter id="filter1_d_531_1925" x="0.057693" y="181" width="1042.88" height="108.942" filterUnits="userSpaceOnUse" color-interpolation-filters="sRGB">
<feFlood flood-opacity="0" result="BackgroundImageFix"/>
<feColorMatrix in="SourceAlpha" type="matrix" values="0 0 0 0 0 0 0 0 0 0 0 0 0 0 0 0 0 0 127 0" result="hardAlpha"/>
<feOffset dx="-2.97115" dy="2.97115"/>
<feGaussianBlur stdDeviation="1.48558"/>
<feComposite in2="hardAlpha" operator="out"/>
<feColorMatrix type="matrix" values="0 0 0 0 1 0 0 0 0 1 0 0 0 0 1 0 0 0 0.25 0"/>
<feBlend mode="normal" in2="BackgroundImageFix" result="effect1_dropShadow_531_1925"/>
<feBlend mode="normal" in="SourceGraphic" in2="effect1_dropShadow_531_1925" result="shape"/>
</filter>
</defs>
</svg>
