<svg width="180" height="180" viewBox="0 0 180 180" fill="none" xmlns="http://www.w3.org/2000/svg">
<rect x="1.5" y="1.5" width="177" height="177" rx="88.5" stroke="black" stroke-width="3"/>
<path d="M132.438 87.0898H128.945V94.0742H132.438V87.0898ZM145.242 94.0742C147.171 94.0742 148.734 92.5108 148.734 90.582C148.734 88.6533 147.171 87.0898 145.242 87.0898V94.0742ZM132.438 94.0742H145.242V87.0898H132.438V94.0742ZM91.6953 133.652V130.16H84.7109V133.652H91.6953ZM84.7109 146.457C84.7109 148.386 86.2744 149.949 88.2031 149.949C90.1319 149.949 91.6953 148.386 91.6953 146.457H84.7109ZM84.7109 133.652V146.457H91.6953V133.652H84.7109ZM46.2969 87.0898H49.7891V94.0742H46.2969V87.0898ZM33.4922 94.0742C31.5635 94.0742 30 92.5108 30 90.582C30 88.6533 31.5635 87.0898 33.4922 87.0898V94.0742ZM46.2969 94.0742H33.4922V87.0898H46.2969V94.0742ZM91.6953 46.3477V50.1309H84.7109V46.3477H91.6953ZM84.7109 33.543C84.7109 31.6142 86.2744 30.0508 88.2031 30.0508C90.1319 30.0508 91.6953 31.6142 91.6953 33.543H84.7109ZM84.7109 46.3477V33.543H91.6953V46.3477H84.7109Z" fill="#11FF00"/>
<path d="M128.781 109.289V118.02C128.781 124.448 123.57 129.66 117.141 129.66H108.992M51.9531 109.289V118.02C51.9531 124.448 57.1649 129.66 63.5938 129.66H71.1602M51.9531 70.293V63.3086C51.9531 56.8797 57.1649 51.668 63.5938 51.668H71.1602M128.781 70.293V63.3086C128.781 56.8797 123.57 51.668 117.141 51.668H108.992M51.9531 97.2119V89.791V82.3701M128.781 97.2119V89.791V82.3701M96.624 51.668H88.9121H82.3643M96.624 129.66H88.9121H82.3643M69.4141 104.051L83.4811 76.3565C83.5568 76.2072 83.7099 76.1133 83.8773 76.1133C84.0492 76.1133 84.2057 76.2125 84.2791 76.3679L97.3516 104.051M76.3984 97.0664H89.2031M110.156 104.051V76.1133M128.781 108.707H136.93M71.7422 129.66V138.973" stroke="#11FF00" stroke-width="4.36523" stroke-linecap="round"/>
<path d="M51.9531 108.707H42.6406" stroke="#11FF00" stroke-width="4.36523" stroke-linecap="round" stroke-linejoin="round"/>
<path d="M71.7422 51.668V42.3555" stroke="#11FF00" stroke-width="4.36523" stroke-linecap="round"/>
<path d="M128.781 70.293H136.93" stroke="#11FF00" stroke-width="4.36523" stroke-linecap="round" stroke-linejoin="round"/>
<path d="M108.992 129.66V138.973" stroke="#11FF00" stroke-width="4.36523" stroke-linecap="round"/>
<path d="M51.9531 70.293H42.6406" stroke="#11FF00" stroke-width="4.36523" stroke-linecap="round" stroke-linejoin="round"/>
<path d="M108.992 51.668V42.3555" stroke="#11FF00" stroke-width="4.36523" stroke-linecap="round"/>
</svg>
