<svg width="180" height="180" viewBox="0 0 180 180" fill="none" xmlns="http://www.w3.org/2000/svg">
<rect x="1.5" y="1.5" width="177" height="177" rx="88.5" stroke="black" stroke-width="3"/>
<path d="M40 127.106C40 134.228 45.773 140 52.8941 140H127.105C134.228 140 140 134.227 140 127.106V52.8945C140 45.7723 134.227 40 127.106 40H52.8945C45.7723 40 40 45.773 40 52.8941V127.106Z" fill="#563D7C"/>
<path d="M81.468 84.2336V70.0723H93.9332C95.1207 70.0723 96.2652 70.1711 97.3676 70.3691C98.4699 70.5668 99.4453 70.9199 100.293 71.4289C101.141 71.9379 101.82 72.6445 102.329 73.5488C102.837 74.4535 103.092 75.6125 103.092 77.0254C103.092 79.5695 102.329 81.407 100.802 82.5375C99.2758 83.6684 97.3254 84.2336 94.9508 84.2336H81.468ZM68.1543 59.7266V120.273H97.4949C100.209 120.273 102.852 119.934 105.424 119.256C107.996 118.577 110.286 117.532 112.293 116.118C114.299 114.705 115.896 112.882 117.084 110.649C118.271 108.416 118.864 105.773 118.864 102.72C118.864 98.932 117.946 95.6957 116.109 93.0105C114.271 90.325 111.487 88.4453 107.755 87.3711C110.469 86.0711 112.519 84.4031 113.904 82.368C115.289 80.3328 115.981 77.7891 115.981 74.7359C115.981 71.9094 115.515 69.5352 114.582 67.6129C113.649 65.691 112.335 64.1504 110.639 62.9914C108.943 61.8324 106.908 60.9984 104.533 60.4898C102.159 59.9809 99.5301 59.7266 96.6469 59.7266H68.1543ZM81.468 109.928V93.307H95.9684C98.8516 93.307 101.17 93.9711 102.922 95.3C104.675 96.6285 105.551 98.8473 105.551 101.957C105.551 103.54 105.282 104.84 104.745 105.857C104.208 106.875 103.488 107.681 102.583 108.274C101.679 108.868 100.632 109.292 99.4453 109.546C98.2578 109.8 97.0145 109.928 95.7141 109.928H81.468Z" fill="white"/>
</svg>
