<svg width="180" height="180" viewBox="0 0 180 180" fill="none" xmlns="http://www.w3.org/2000/svg">
<rect x="1.5" y="1.5" width="177" height="177" rx="88.5" stroke="black" stroke-width="3"/>
<path d="M68.793 32.2852H81.1816V37.4661H73.9739V42.647H81.1823V47.8277H68.793V32.2852ZM83.6597 32.2852H96.0487V36.7903H88.8406V37.6913H96.0487V48.0532H83.66V43.3222H90.868V42.4212H83.6594L83.6597 32.2852ZM98.5267 32.2852H110.916V36.7903H103.708V37.6913H110.916V48.0532H98.5267V43.3222H105.735V42.4212H98.527V32.2852H98.5267Z" fill="black"/>
<path d="M89.8041 147.717L56.4361 138.453L49 55.0508H130.708L123.264 138.44L89.8041 147.717Z" fill="#264DE4"/>
<path d="M116.745 133.03L123.105 61.7695H89.707V140.526L116.745 133.03Z" fill="#2965F1"/>
<path d="M65.8989 92.7036L66.8156 102.933H89.7061V92.7036H65.8989ZM64.0566 72L64.9864 82.229H89.7061V72H64.0566ZM89.7061 119.269L89.6613 119.281L78.2693 116.205L77.541 108.047H67.2726L68.7056 124.108L89.659 129.925L89.7061 129.912V119.269Z" fill="#EBEBEB"/>
<path d="M113.447 92.7036L115.294 72H89.6702V82.229H104.084L103.153 92.7036H89.6702V102.933H102.266L101.079 116.199L89.6699 119.278V129.92L110.64 124.108L110.794 122.38L113.198 95.4504L113.447 92.7036Z" fill="white"/>
</svg>
