<svg width="180" height="180" viewBox="0 0 180 180" fill="none" xmlns="http://www.w3.org/2000/svg">
<rect x="1.5" y="1.5" width="177" height="177" rx="88.5" stroke="black" stroke-width="3"/>
<path d="M53 53.11C53 43.082 61.1387 34.9434 71.1667 34.9434H89.3333V71.2767H71.1667C61.1387 71.2767 53 63.138 53 53.11Z" fill="#F24E1E"/>
<path d="M90 34.9434H108.167C118.195 34.9434 126.333 43.082 126.333 53.11C126.333 63.138 118.195 71.2767 108.167 71.2767H90V34.9434Z" fill="#FF7262"/>
<path d="M53 90.0007C53 79.9727 61.1387 71.834 71.1667 71.834H89.3333V108.167H71.1667C61.1387 108.167 53 100.029 53 90.0007Z" fill="#A259FF"/>
<path d="M126.333 90.0007C126.333 100.029 118.195 108.167 108.167 108.167C98.1387 108.167 90 100.029 90 90.0007C90 79.9727 98.1387 71.834 108.167 71.834C118.195 71.834 126.333 79.9727 126.333 90.0007Z" fill="#1ABCFE"/>
<path d="M71.1667 145.058C81.1947 145.058 89.3333 136.919 89.3333 126.891V108.725H71.1667C61.1387 108.725 53 116.863 53 126.891C53 136.919 61.1387 145.058 71.1667 145.058Z" fill="#0ACF83"/>
</svg>
