<svg width="1461" height="801" viewBox="0 0 1461 801" fill="none" xmlns="http://www.w3.org/2000/svg">
<path d="M141.977 0.5V800.5M284.355 0.5V800.5H430.337V0.5H571.814V800.5H722.302V0.5H869.186V800.5H1015.17V0.5H1161.15V800.5H1298.12V0.5H1440.5M1440.5 0.5V80.4528M1440.5 0.5H0.5V800.5M0.5 800.5H1440.5V717.009M0.5 800.5V717.009H1440.5M1440.5 717.009V640.594M1440.5 640.594H0.5V559.462H1440.5M1440.5 640.594V559.462M1440.5 559.462V475.972M1440.5 475.972H0.5V401.915H1440.5M1440.5 475.972V401.915M1440.5 401.915V318.425M1440.5 318.425H0.5V237.292H1440.5M1440.5 318.425V237.292M1440.5 237.292V160.406M1440.5 160.406H0.5V76.9151L1440.5 80.4528M1440.5 160.406V80.4528" stroke="url(#paint0_linear_457_1645)" stroke-opacity="0.2"/>
<defs>
<linearGradient id="paint0_linear_457_1645" x1="0.5" y1="0.5" x2="1440.5" y2="814.5" gradientUnits="userSpaceOnUse">
<stop/>
<stop offset="0.951194" stop-color="#666666"/>
</linearGradient>
</defs>
</svg>
