<svg width="35" height="35" viewBox="0 0 35 35" fill="none" xmlns="http://www.w3.org/2000/svg">
<rect x="1" y="1" width="33" height="33" rx="16.5" stroke="white" stroke-width="2"/>
<mask id="mask0_476_1687" style="mask-type:alpha" maskUnits="userSpaceOnUse" x="7" y="7" width="21" height="21">
<path d="M21.9503 12.0493C21.7525 12.0493 21.5592 12.108 21.3948 12.2179C21.2303 12.3278 21.1021 12.4839 21.0264 12.6667C20.9508 12.8494 20.931 13.0505 20.9695 13.2444C21.0081 13.4384 21.1034 13.6166 21.2432 13.7565C21.3831 13.8963 21.5613 13.9915 21.7552 14.0301C21.9492 14.0687 22.1503 14.0489 22.333 13.9732C22.5157 13.8975 22.6719 13.7694 22.7818 13.6049C22.8917 13.4405 22.9503 13.2471 22.9503 13.0493C22.9503 12.7841 22.845 12.5298 22.6574 12.3422C22.4699 12.1547 22.2155 12.0493 21.9503 12.0493ZM25.7837 14.066C25.7674 13.3746 25.638 12.6905 25.4003 12.041C25.1884 11.4853 24.8586 10.9821 24.4337 10.566C24.021 10.1389 23.5166 9.81116 22.9587 9.60768C22.3109 9.36282 21.626 9.23036 20.9337 9.21602C20.0503 9.16602 19.767 9.16602 17.5003 9.16602C15.2337 9.16602 14.9503 9.16602 14.067 9.21602C13.3746 9.23036 12.6898 9.36282 12.042 9.60768C11.4851 9.81322 10.9811 10.1406 10.567 10.566C10.1398 10.9787 9.81214 11.483 9.60866 12.041C9.36379 12.6888 9.23133 13.3736 9.21699 14.066C9.16699 14.9493 9.16699 15.2327 9.16699 17.4993C9.16699 19.766 9.16699 20.0493 9.21699 20.9327C9.23133 21.6251 9.36379 22.3099 9.60866 22.9577C9.81214 23.5156 10.1398 24.02 10.567 24.4327C10.9811 24.858 11.4851 25.1855 12.042 25.391C12.6898 25.6359 13.3746 25.7683 14.067 25.7827C14.9503 25.8327 15.2337 25.8327 17.5003 25.8327C19.767 25.8327 20.0503 25.8327 20.9337 25.7827C21.626 25.7683 22.3109 25.6359 22.9587 25.391C23.5166 25.1875 24.021 24.8598 24.4337 24.4327C24.8605 24.0182 25.1906 23.5145 25.4003 22.9577C25.638 22.3082 25.7674 21.6241 25.7837 20.9327C25.7837 20.0493 25.8337 19.766 25.8337 17.4993C25.8337 15.2327 25.8337 14.9493 25.7837 14.066ZM24.2837 20.8327C24.2776 21.3617 24.1818 21.8858 24.0003 22.3827C23.8673 22.7453 23.6536 23.073 23.3753 23.341C23.105 23.6164 22.778 23.8297 22.417 23.966C21.9201 24.1475 21.396 24.2433 20.867 24.2493C20.0337 24.291 19.7253 24.2993 17.5337 24.2993C15.342 24.2993 15.0337 24.2993 14.2003 24.2493C13.6511 24.2596 13.1042 24.1751 12.5837 23.9993C12.2385 23.8561 11.9265 23.6433 11.667 23.3743C11.3904 23.1066 11.1794 22.7787 11.0503 22.416C10.8469 21.912 10.734 21.376 10.717 20.8327C10.717 19.9993 10.667 19.691 10.667 17.4993C10.667 15.3077 10.667 14.9993 10.717 14.166C10.7207 13.6252 10.8195 13.0893 11.0087 12.5827C11.1554 12.2309 11.3805 11.9174 11.667 11.666C11.9202 11.3795 12.2331 11.1519 12.5837 10.9993C13.0916 10.8161 13.627 10.7202 14.167 10.716C15.0003 10.716 15.3087 10.666 17.5003 10.666C19.692 10.666 20.0003 10.666 20.8337 10.716C21.3626 10.7221 21.8867 10.8179 22.3837 10.9993C22.7623 11.1399 23.1022 11.3684 23.3753 11.666C23.6484 11.922 23.8618 12.235 24.0003 12.5827C24.1855 13.0901 24.2814 13.6258 24.2837 14.166C24.3253 14.9993 24.3337 15.3077 24.3337 17.4993C24.3337 19.691 24.3253 19.9993 24.2837 20.8327ZM17.5003 13.2243C16.6552 13.226 15.8295 13.4781 15.1275 13.9489C14.4256 14.4196 13.879 15.0878 13.5567 15.8691C13.2344 16.6504 13.1509 17.5097 13.3168 18.3385C13.4827 19.1672 13.8905 19.9281 14.4887 20.5252C15.0869 21.1222 15.8487 21.5285 16.6777 21.6928C17.5067 21.8571 18.3659 21.7719 19.1465 21.4481C19.9272 21.1243 20.5944 20.5764 21.0638 19.8735C21.5331 19.1707 21.7837 18.3445 21.7837 17.4993C21.7848 16.9369 21.6747 16.3799 21.4597 15.8601C21.2447 15.3404 20.9291 14.8684 20.531 14.4711C20.133 14.0738 19.6603 13.7591 19.1402 13.5451C18.62 13.3312 18.0627 13.2221 17.5003 13.2243ZM17.5003 20.2743C16.9515 20.2743 16.415 20.1116 15.9586 19.8067C15.5023 19.5018 15.1466 19.0684 14.9366 18.5613C14.7265 18.0542 14.6716 17.4963 14.7786 16.958C14.8857 16.4197 15.15 15.9252 15.5381 15.5371C15.9262 15.149 16.4207 14.8847 16.9589 14.7777C17.4972 14.6706 18.0552 14.7255 18.5623 14.9356C19.0693 15.1456 19.5027 15.5013 19.8077 15.9576C20.1126 16.414 20.2753 16.9505 20.2753 17.4993C20.2753 17.8638 20.2035 18.2246 20.0641 18.5613C19.9246 18.898 19.7202 19.2039 19.4625 19.4616C19.2049 19.7193 18.8989 19.9237 18.5623 20.0631C18.2256 20.2026 17.8647 20.2743 17.5003 20.2743Z" fill="black"/>
</mask>
<g mask="url(#mask0_476_1687)">
<rect x="3.08594" y="5.27344" width="28.2812" height="26.4453" fill="white"/>
</g>
</svg>
