<svg width="35" height="35" viewBox="0 0 35 35" fill="none" xmlns="http://www.w3.org/2000/svg">
<rect x="1" y="1" width="33" height="33" rx="16.5" stroke="black" stroke-width="2"/>
<mask id="mask0_369_1579" style="mask-type:alpha" maskUnits="userSpaceOnUse" x="7" y="7" width="20" height="21">
<path d="M21.4498 12.0513C21.2521 12.0513 21.0587 12.11 20.8943 12.2198C20.7298 12.3297 20.6016 12.4859 20.526 12.6686C20.4503 12.8513 20.4305 13.0524 20.469 13.2464C20.5076 13.4404 20.6029 13.6186 20.7427 13.7584C20.8826 13.8983 21.0608 13.9935 21.2547 14.0321C21.4487 14.0707 21.6498 14.0509 21.8325 13.9752C22.0152 13.8995 22.1714 13.7713 22.2813 13.6069C22.3912 13.4424 22.4498 13.2491 22.4498 13.0513C22.4498 12.7861 22.3445 12.5317 22.1569 12.3442C21.9694 12.1567 21.7151 12.0513 21.4498 12.0513ZM25.2832 14.068C25.267 13.3765 25.1375 12.6925 24.8998 12.043C24.6879 11.4872 24.3582 10.984 23.9332 10.568C23.5205 10.1408 23.0161 9.81312 22.4582 9.60964C21.8104 9.36477 21.1255 9.23231 20.4332 9.21797C19.5498 9.16797 19.2665 9.16797 16.9998 9.16797C14.7332 9.16797 14.4498 9.16797 13.5665 9.21797C12.8741 9.23231 12.1893 9.36477 11.5415 9.60964C10.9846 9.81518 10.4806 10.1426 10.0665 10.568C9.63936 10.9806 9.31165 11.485 9.10817 12.043C8.8633 12.6908 8.73085 13.3756 8.7165 14.068C8.6665 14.9513 8.6665 15.2346 8.6665 17.5013C8.6665 19.768 8.6665 20.0513 8.7165 20.9346C8.73085 21.627 8.8633 22.3118 9.10817 22.9596C9.31165 23.5176 9.63936 24.022 10.0665 24.4346C10.4806 24.86 10.9846 25.1874 11.5415 25.393C12.1893 25.6378 12.8741 25.7703 13.5665 25.7846C14.4498 25.8346 14.7332 25.8346 16.9998 25.8346C19.2665 25.8346 19.5498 25.8346 20.4332 25.7846C21.1255 25.7703 21.8104 25.6378 22.4582 25.393C23.0161 25.1895 23.5205 24.8618 23.9332 24.4346C24.36 24.0201 24.6901 23.5165 24.8998 22.9596C25.1375 22.3101 25.267 21.6261 25.2832 20.9346C25.2832 20.0513 25.3332 19.768 25.3332 17.5013C25.3332 15.2346 25.3332 14.9513 25.2832 14.068ZM23.7832 20.8346C23.7771 21.3636 23.6813 21.8877 23.4998 22.3846C23.3668 22.7473 23.1531 23.075 22.8748 23.343C22.6045 23.6184 22.2775 23.8317 21.9165 23.968C21.4196 24.1494 20.8955 24.2452 20.3665 24.2513C19.5332 24.293 19.2248 24.3013 17.0332 24.3013C14.8415 24.3013 14.5332 24.3013 13.6998 24.2513C13.1506 24.2616 12.6037 24.177 12.0832 24.0013C11.738 23.858 11.426 23.6453 11.1665 23.3763C10.8899 23.1086 10.6789 22.7806 10.5498 22.418C10.3464 21.9139 10.2335 21.3779 10.2165 20.8346C10.2165 20.0013 10.1665 19.693 10.1665 17.5013C10.1665 15.3096 10.1665 15.0013 10.2165 14.168C10.2202 13.6272 10.319 13.0913 10.5082 12.5846C10.6549 12.2329 10.8801 11.9194 11.1665 11.668C11.4197 11.3814 11.7326 11.1539 12.0832 11.0013C12.5911 10.818 13.1265 10.7222 13.6665 10.718C14.4998 10.718 14.8082 10.668 16.9998 10.668C19.1915 10.668 19.4998 10.668 20.3332 10.718C20.8621 10.724 21.3863 10.8198 21.8832 11.0013C22.2619 11.1418 22.6017 11.3703 22.8748 11.668C23.1479 11.924 23.3613 12.2369 23.4998 12.5846C23.685 13.0921 23.7809 13.6278 23.7832 14.168C23.8248 15.0013 23.8332 15.3096 23.8332 17.5013C23.8332 19.693 23.8248 20.0013 23.7832 20.8346ZM16.9998 13.2263C16.1547 13.2279 15.329 13.4801 14.627 13.9508C13.9251 14.4216 13.3785 15.0898 13.0562 15.8711C12.7339 16.6524 12.6504 17.5117 12.8163 18.3404C12.9822 19.1691 13.39 19.9301 13.9882 20.5271C14.5864 21.1242 15.3482 21.5305 16.1772 21.6948C17.0063 21.859 17.8654 21.7739 18.6461 21.4501C19.4267 21.1263 20.0939 20.5783 20.5633 19.8755C21.0327 19.1727 21.2832 18.3465 21.2832 17.5013C21.2843 16.9389 21.1742 16.3818 20.9592 15.8621C20.7442 15.3424 20.4286 14.8703 20.0306 14.473C19.6325 14.0757 19.1598 13.761 18.6397 13.5471C18.1195 13.3331 17.5622 13.2241 16.9998 13.2263ZM16.9998 20.2763C16.451 20.2763 15.9145 20.1135 15.4581 19.8086C15.0018 19.5037 14.6461 19.0703 14.4361 18.5632C14.226 18.0562 14.1711 17.4982 14.2782 16.9599C14.3852 16.4216 14.6495 15.9272 15.0376 15.5391C15.4257 15.151 15.9202 14.8867 16.4585 14.7796C16.9968 14.6725 17.5547 14.7275 18.0618 14.9375C18.5688 15.1476 19.0022 15.5032 19.3072 15.9596C19.6121 16.4159 19.7748 16.9525 19.7748 17.5013C19.7748 17.8657 19.7031 18.2266 19.5636 18.5632C19.4241 18.8999 19.2197 19.2058 18.9621 19.4635C18.7044 19.7212 18.3985 19.9256 18.0618 20.0651C17.7251 20.2045 17.3643 20.2763 16.9998 20.2763Z" fill="black"/>
</mask>
<g mask="url(#mask0_369_1579)">
<rect x="2.58594" y="5.27344" width="28.2812" height="26.4453" fill="black"/>
</g>
</svg>
