<svg width="180" height="180" viewBox="0 0 180 180" fill="none" xmlns="http://www.w3.org/2000/svg">
<rect x="1.5" y="1.5" width="177" height="177" rx="88.5" stroke="black" stroke-width="3"/>
<rect x="40" y="40" width="100" height="100" rx="10" fill="black"/>
<path d="M50 40C44.4772 40 40 44.4772 40 50V130C40 135.523 44.4772 140 50 140H130C135.523 140 140 135.523 140 130V50C140 44.4772 135.523 40 130 40H50ZM92.192 125.544C90.7189 128.538 87.9039 130.507 84.6447 131.456C79.6345 132.606 74.8447 131.951 71.2788 129.81C70.4814 129.321 69.7426 128.744 69.0651 128.096C66.735 125.866 67.8667 122.214 70.6159 120.528C71.2464 120.141 71.8771 119.755 72.5081 119.369C73.0497 119.037 73.5886 119.147 73.9053 119.697C74.8735 121.323 75.7106 122.474 77.3562 123.279C78.973 123.829 82.5166 124.183 83.8874 121.339C84.7246 119.895 84.4562 115.153 84.4562 110.012C84.4562 103.479 84.4812 97.0331 84.4908 90.4809C84.4946 87.8983 86.5882 85.8046 89.1708 85.8046C91.7535 85.8046 93.8472 87.8982 93.851 90.4809C93.8614 97.5168 93.8864 104.561 93.8471 111.581C93.8663 116.837 94.3232 121.617 92.192 125.544ZM130.999 122.902C130.997 122.902 130.995 122.903 130.995 122.905C127.743 134.025 109.615 134.385 102.375 127.037C102.017 126.632 101.69 126.273 101.388 125.934C99.7678 124.118 100.643 121.448 102.752 120.232C104.924 118.979 107.509 119.825 109.41 121.461C110.629 122.509 112.026 123.193 113.869 123.576C118.461 124.135 123.081 122.56 122.046 117.684C120.982 113.7 112.645 112.731 106.97 108.472C101.209 104.603 99.8607 95.2019 104.593 89.8306C106.171 87.8432 108.862 86.3606 111.683 85.648L114.629 85.2678C120.285 85.1527 123.822 86.6449 126.417 89.5463C127.983 91.1331 127.726 93.4803 125.848 94.6809C123.782 96.0009 120.585 95.2767 118.422 94.124C118.103 93.954 117.775 93.8139 117.444 93.7033C114.936 92.9429 111.77 93.7704 111.115 96.4225C110.933 97.0786 110.927 97.6977 111.119 98.6129C111.222 99.1065 111.379 99.5953 111.67 100.007C112.991 101.874 116.031 102.816 118.786 104.082C127.599 107.657 130.574 111.485 131.306 116.048C132.007 119.966 131.137 122.511 131.003 122.899C131.002 122.901 131.001 122.902 130.999 122.902Z" fill="#F2FF00"/>
</svg>
