<svg width="35" height="35" viewBox="0 0 35 35" fill="none" xmlns="http://www.w3.org/2000/svg">
<rect x="1" y="1" width="33" height="33" rx="16.5" stroke="white" stroke-width="2"/>
<mask id="mask0_476_1705" style="mask-type:alpha" maskUnits="userSpaceOnUse" x="7" y="7" width="21" height="21">
<path d="M26.5 19.4458V26.1004H22.642V19.8914C22.642 18.3316 22.084 17.2672 20.6874 17.2672C19.6214 17.2672 18.987 17.9846 18.708 18.6784C18.6062 18.9266 18.58 19.2718 18.58 19.6192V26.1004H14.7208C14.7208 26.1004 14.7728 15.5844 14.7208 14.4948H18.5798V16.1398C18.572 16.1522 18.5618 16.1654 18.5544 16.1774H18.5798V16.1398C19.0924 15.3502 20.008 14.2222 22.0574 14.2222C24.5966 14.2222 26.5 15.881 26.5 19.4458ZM10.6838 8.90039C9.3636 8.90039 8.5 9.76639 8.5 10.9052C8.5 12.0192 9.3386 12.9114 10.6326 12.9114H10.6584C12.0042 12.9114 12.8412 12.0194 12.8412 10.9052C12.8158 9.76639 12.0042 8.90039 10.6838 8.90039ZM8.7292 26.1004H12.587V14.4948H8.7292V26.1004Z" fill="black"/>
</mask>
<g mask="url(#mask0_476_1705)">
<rect x="3.71094" y="1.83594" width="26.875" height="28.6328" fill="white"/>
</g>
</svg>
