<svg width="35" height="35" viewBox="0 0 35 35" fill="none" xmlns="http://www.w3.org/2000/svg">
<rect x="1" y="1" width="33" height="33" rx="16.5" stroke="black" stroke-width="2"/>
<mask id="mask0_369_1597" style="mask-type:alpha" maskUnits="userSpaceOnUse" x="7" y="7" width="20" height="21">
<path d="M26 19.4438V26.0984H22.142V19.8894C22.142 18.3296 21.584 17.2652 20.1874 17.2652C19.1214 17.2652 18.487 17.9826 18.208 18.6764C18.1062 18.9246 18.08 19.2698 18.08 19.6172V26.0984H14.2208C14.2208 26.0984 14.2728 15.5824 14.2208 14.4928H18.0798V16.1378C18.072 16.1502 18.0618 16.1634 18.0544 16.1754H18.0798V16.1378C18.5924 15.3482 19.508 14.2202 21.5574 14.2202C24.0966 14.2202 26 15.879 26 19.4438ZM10.1838 8.89844C8.8636 8.89844 8 9.76444 8 10.9032C8 12.0172 8.8386 12.9094 10.1326 12.9094H10.1584C11.5042 12.9094 12.3412 12.0174 12.3412 10.9032C12.3158 9.76444 11.5042 8.89844 10.1838 8.89844ZM8.2292 26.0984H12.087V14.4928H8.2292V26.0984Z" fill="black"/>
</mask>
<g mask="url(#mask0_369_1597)">
<rect x="3.21094" y="1.83594" width="26.875" height="28.6328" fill="black"/>
</g>
</svg>
