<svg width="35" height="35" viewBox="0 0 35 35" fill="none" xmlns="http://www.w3.org/2000/svg">
<rect x="1" y="1" width="33" height="33" rx="16.5" stroke="white" stroke-width="2"/>
<path d="M25.5471 9.91219L17.4961 9.93179L9.4451 9.89258H9.44118C8.35882 9.89258 7.5 10.9083 7.5 12.1789V22.822C7.5 24.0926 8.35882 25.1083 9.44118 25.1083H25.5588C26.6412 25.1083 27.5 24.0926 27.5 22.822V12.1789C27.5 10.9083 26.649 9.91219 25.5471 9.91219ZM24.9157 11.4808L17.7235 18.0573L17.6961 18.0808L17.6725 18.1083C17.5863 18.2024 17.4843 18.2141 17.4294 18.2141C17.3745 18.2141 17.2725 18.1985 17.1902 18.1004L17.1667 18.073L10.2922 11.4494L17.4961 11.4965L24.9157 11.4808ZM25.5588 23.5396H9.44118C9.30392 23.5396 9.06863 23.2808 9.06863 22.822V12.4298L16.0333 19.1592C16.3863 19.5514 16.8843 19.7789 17.4137 19.7867H17.4373C17.9588 19.7867 18.4451 19.571 18.802 19.1945L25.9392 12.6612V22.822C25.9314 23.2808 25.6961 23.5396 25.5588 23.5396Z" fill="white"/>
</svg>
