<svg width="35" height="35" viewBox="0 0 35 35" fill="none" xmlns="http://www.w3.org/2000/svg">
<rect x="1" y="1" width="33" height="33" rx="16.5" stroke="black" stroke-width="2"/>
<mask id="mask0_369_1585" style="mask-type:alpha" maskUnits="userSpaceOnUse" x="7" y="7" width="20" height="21">
<g clip-path="url(#clip0_369_1585)">
<path d="M19.7257 18.5083C20.2074 18.6625 20.624 18.855 21.0115 19.0917L20.9857 19.0767C21.4265 19.2725 21.8074 19.5017 22.1549 19.7708L22.1424 19.7617C22.159 19.8125 22.169 19.87 22.169 19.9308C22.169 19.94 22.169 19.9483 22.1682 19.9575V19.9567C22.1557 20.3142 22.0765 20.65 21.9424 20.9558L21.949 20.9383C21.7565 21.3242 21.4357 21.6217 21.0432 21.78L21.0315 21.7842C20.649 21.9867 20.1974 22.1117 19.7182 22.1267H19.7132C18.7965 22.005 17.9682 21.7233 17.2232 21.3083L17.259 21.3267C16.4074 20.9367 15.6799 20.4242 15.0624 19.8025L15.0615 19.8017C14.3749 19.0875 13.7457 18.3058 13.1882 17.4733L13.149 17.4117C12.619 16.7208 12.2815 15.8567 12.2324 14.9158L12.2315 14.905V14.8017C12.2582 13.9892 12.6215 13.2658 13.1849 12.7625L13.1874 12.76C13.3599 12.5883 13.5965 12.4808 13.8582 12.4758H13.859C13.9432 12.4783 14.024 12.485 14.1024 12.4967L14.0915 12.495C14.164 12.5058 14.2482 12.5125 14.3349 12.5142H14.3374C14.3532 12.5125 14.3707 12.5117 14.389 12.5117C14.4974 12.5117 14.5982 12.5442 14.6824 12.5992L14.6807 12.5983C14.7699 12.6967 14.8382 12.8158 14.879 12.9467L14.8807 12.9533C14.9496 13.1256 15.0918 13.5044 15.3074 14.09C15.4199 14.3517 15.5299 14.6742 15.6182 15.0058L15.6299 15.0583C15.5665 15.3592 15.4065 15.615 15.1857 15.7992L15.1832 15.8008C14.886 16.1153 14.7374 16.3153 14.7374 16.4008C14.7407 16.4742 14.7657 16.5408 14.8049 16.5958L14.804 16.595C15.1415 17.2858 15.584 17.8725 16.1174 18.3608L16.1215 18.365C16.684 18.8725 17.3265 19.3083 18.0232 19.6483L18.0724 19.67C18.1532 19.7225 18.2499 19.7558 18.3549 19.7608H18.3565C18.486 19.7608 18.7187 19.5519 19.0549 19.1342C19.391 18.7164 19.6143 18.5075 19.7249 18.5075L19.7257 18.5083ZM17.1032 25.355H17.1215C18.2524 25.355 19.3274 25.1175 20.2999 24.6892L20.249 24.7092C22.2124 23.8808 23.7432 22.35 24.5515 20.4392L24.5715 20.3867C24.9799 19.4592 25.2174 18.3775 25.2174 17.2408C25.2174 16.1042 24.9799 15.0225 24.5515 14.0433L24.5715 14.095C23.7432 12.1317 22.2124 10.6008 20.3015 9.7925L20.249 9.7725C19.3215 9.36417 18.2399 9.12667 17.1032 9.12667C15.9665 9.12667 14.8849 9.36417 13.9057 9.7925L13.9574 9.7725C11.994 10.6008 10.4632 12.1317 9.65486 14.0425L9.63486 14.095C9.22652 15.0258 8.98902 16.1108 8.98902 17.2508C8.98902 19.035 9.57069 20.6842 10.5549 22.0175L10.539 21.9958L9.51819 25.0067L12.6449 24.0117C13.8865 24.8533 15.4174 25.355 17.0657 25.355H17.1049H17.1032ZM17.1032 7.5H17.1307C18.4874 7.5 19.7774 7.785 20.9432 8.29917L20.8824 8.275C23.2365 9.2725 25.0724 11.1083 26.0457 13.3992L26.0699 13.4625C26.5599 14.5767 26.8449 15.8758 26.8449 17.2417C26.8449 18.6075 26.5599 19.9067 26.0457 21.0825L26.0699 21.0208C25.0724 23.375 23.2365 25.2108 20.9457 26.1842L20.8824 26.2083C19.7765 26.6983 18.4865 26.9833 17.1299 26.9833C17.1207 26.9833 17.1107 26.9833 17.1015 26.9833H17.1032C17.0899 26.9833 17.0749 26.9833 17.059 26.9833C15.3432 26.9833 13.7324 26.5325 12.339 25.7433L12.3865 25.7683L6.99902 27.5L8.75652 22.2675C7.88069 20.8392 7.36152 19.11 7.36152 17.2592C7.36152 15.8875 7.64652 14.5825 8.16069 13.4L8.13652 13.4625C9.13402 11.1083 10.9699 9.2725 13.2607 8.29917L13.324 8.275C14.4299 7.785 15.7199 7.5 17.0765 7.5H17.104L17.1032 7.5Z" fill="black"/>
</g>
</mask>
<g mask="url(#mask0_369_1585)">
<rect x="4.89062" y="4.60938" width="24.1406" height="26.6016" fill="black"/>
</g>
<defs>
<clipPath id="clip0_369_1585">
<rect width="20" height="20" fill="white" transform="translate(7 7.5)"/>
</clipPath>
</defs>
</svg>
