<svg width="35" height="35" viewBox="0 0 35 35" fill="none" xmlns="http://www.w3.org/2000/svg">
<rect x="1" y="1" width="33" height="33" rx="16.5" stroke="white" stroke-width="2"/>
<mask id="mask0_476_1693" style="mask-type:alpha" maskUnits="userSpaceOnUse" x="7" y="7" width="21" height="21">
<g clip-path="url(#clip0_476_1693)">
<path d="M20.2257 18.5083C20.7074 18.6625 21.124 18.855 21.5115 19.0917L21.4857 19.0767C21.9265 19.2725 22.3074 19.5017 22.6549 19.7708L22.6424 19.7617C22.659 19.8125 22.669 19.87 22.669 19.9308C22.669 19.94 22.669 19.9483 22.6682 19.9575V19.9567C22.6557 20.3142 22.5765 20.65 22.4424 20.9558L22.449 20.9383C22.2565 21.3242 21.9357 21.6217 21.5432 21.78L21.5315 21.7842C21.149 21.9867 20.6974 22.1117 20.2182 22.1267H20.2132C19.2965 22.005 18.4682 21.7233 17.7232 21.3083L17.759 21.3267C16.9074 20.9367 16.1799 20.4242 15.5624 19.8025L15.5615 19.8017C14.8749 19.0875 14.2457 18.3058 13.6882 17.4733L13.649 17.4117C13.119 16.7208 12.7815 15.8567 12.7324 14.9158L12.7315 14.905V14.8017C12.7582 13.9892 13.1215 13.2658 13.6849 12.7625L13.6874 12.76C13.8599 12.5883 14.0965 12.4808 14.3582 12.4758H14.359C14.4432 12.4783 14.524 12.485 14.6024 12.4967L14.5915 12.495C14.664 12.5058 14.7482 12.5125 14.8349 12.5142H14.8374C14.8532 12.5125 14.8707 12.5117 14.889 12.5117C14.9974 12.5117 15.0982 12.5442 15.1824 12.5992L15.1807 12.5983C15.2699 12.6967 15.3382 12.8158 15.379 12.9467L15.3807 12.9533C15.4496 13.1256 15.5918 13.5044 15.8074 14.09C15.9199 14.3517 16.0299 14.6742 16.1182 15.0058L16.1299 15.0583C16.0665 15.3592 15.9065 15.615 15.6857 15.7992L15.6832 15.8008C15.386 16.1153 15.2374 16.3153 15.2374 16.4008C15.2407 16.4742 15.2657 16.5408 15.3049 16.5958L15.304 16.595C15.6415 17.2858 16.084 17.8725 16.6174 18.3608L16.6215 18.365C17.184 18.8725 17.8265 19.3083 18.5232 19.6483L18.5724 19.67C18.6532 19.7225 18.7499 19.7558 18.8549 19.7608H18.8565C18.986 19.7608 19.2187 19.5519 19.5549 19.1342C19.891 18.7164 20.1143 18.5075 20.2249 18.5075L20.2257 18.5083ZM17.6032 25.355H17.6215C18.7524 25.355 19.8274 25.1175 20.7999 24.6892L20.749 24.7092C22.7124 23.8808 24.2432 22.35 25.0515 20.4392L25.0715 20.3867C25.4799 19.4592 25.7174 18.3775 25.7174 17.2408C25.7174 16.1042 25.4799 15.0225 25.0515 14.0433L25.0715 14.095C24.2432 12.1317 22.7124 10.6008 20.8015 9.7925L20.749 9.7725C19.8215 9.36417 18.7399 9.12667 17.6032 9.12667C16.4665 9.12667 15.3849 9.36417 14.4057 9.7925L14.4574 9.7725C12.494 10.6008 10.9632 12.1317 10.1549 14.0425L10.1349 14.095C9.72652 15.0258 9.48902 16.1108 9.48902 17.2508C9.48902 19.035 10.0707 20.6842 11.0549 22.0175L11.039 21.9958L10.0182 25.0067L13.1449 24.0117C14.3865 24.8533 15.9174 25.355 17.5657 25.355H17.6049H17.6032ZM17.6032 7.5H17.6307C18.9874 7.5 20.2774 7.785 21.4432 8.29917L21.3824 8.275C23.7365 9.2725 25.5724 11.1083 26.5457 13.3992L26.5699 13.4625C27.0599 14.5767 27.3449 15.8758 27.3449 17.2417C27.3449 18.6075 27.0599 19.9067 26.5457 21.0825L26.5699 21.0208C25.5724 23.375 23.7365 25.2108 21.4457 26.1842L21.3824 26.2083C20.2765 26.6983 18.9865 26.9833 17.6299 26.9833C17.6207 26.9833 17.6107 26.9833 17.6015 26.9833H17.6032C17.5899 26.9833 17.5749 26.9833 17.559 26.9833C15.8432 26.9833 14.2324 26.5325 12.839 25.7433L12.8865 25.7683L7.49902 27.5L9.25652 22.2675C8.38069 20.8392 7.86152 19.11 7.86152 17.2592C7.86152 15.8875 8.14652 14.5825 8.66069 13.4L8.63652 13.4625C9.63402 11.1083 11.4699 9.2725 13.7607 8.29917L13.824 8.275C14.9299 7.785 16.2199 7.5 17.5765 7.5H17.604L17.6032 7.5Z" fill="black"/>
</g>
</mask>
<g mask="url(#mask0_476_1693)">
<rect x="5.39062" y="4.60938" width="24.1406" height="26.6016" fill="white"/>
</g>
<defs>
<clipPath id="clip0_476_1693">
<rect width="20" height="20" fill="white" transform="translate(7.5 7.5)"/>
</clipPath>
</defs>
</svg>
